<?xml version="1.0" encoding="utf-8"?>
<!-- Generator: Adobe Illustrator 21.1.0, SVG Export Plug-In . SVG Version: 6.00 Build 0)  -->
<svg version="1.1" xmlns="http://www.w3.org/2000/svg" xmlns:xlink="http://www.w3.org/1999/xlink" x="0px" y="0px"
	 viewBox="0 0 331.3 408.7" style="enable-background:new 0 0 331.3 408.7;" xml:space="preserve">
<style type="text/css">
	.st0{fill:#FFFFFF;}
	.st1{fill:#FFCD49;}
	.st2{fill:#F89939;}
	.st3{fill:#1D1D1D;}
</style>
<g id="Capa_9">
	<path class="st0" d="M325.5,179.8c0.8-2.5,0-5.5-2.3-6.8c-0.2-0.3-0.4-0.6-0.6-0.8c-1.4-3.5-3.5-6.6-6.7-9.1
		c-3.4-2.5-7.3-4.3-11.4-5.2c-0.9-0.8-2-1.3-3.5-1.3c-1.8-0.1-4.1-1.6-5.9-2.1c-2.6-0.7-5.3-1.1-8-1.4c-0.6-0.1-1.1,0-1.6,0.2
		c-6.4-1.2-12.2-2.8-19-2.4c-0.2,0-0.4,0.1-0.5,0.1c-2.6-0.4-5.1-0.8-7.7-0.7c-0.8,0-1.5,0.2-2.2,0.5c-0.6,0-1.2,0-1.9,0.2
		c0.7-0.4,1.4-0.7,2.2-0.9c1.5-0.5,3.1-0.9,4.6-1.4c0.7,0.6,1.7,0.8,2.5,0c1.9-1.8,4.3-3.1,5.5-5.5c1.1-2.2,0.6-4.6-1.4-6.1
		c-0.5-0.4-1.2-0.8-2-0.9c-0.1-0.4-0.3-0.8-0.5-1c3.4-3.1,7.4-7,8.9-10.8c1.6-4-0.5-9.2-2-13c-3.1-7.9-10.4-12-18.3-12.9
		c-0.9-2.4-2.4-5-4.8-6.2c-1.1-0.6-2.4-1-3.7-1.3c0,0,0.1-0.1,0.1-0.1c0.7,0.3,1.4,0.1,2.1-0.4c1.3-1,2.5-2.3,3.3-3.8
		c0.3-0.5,0.3-1.2,0.1-1.8c0.9-1.3,1.6-2.6,2.3-4c0.2-0.3,0.2-0.7,0.2-1c0.5-1.2,0.8-2.4,1.1-3.6c0.3-1.3-0.6-2.2-1.7-2.3
		c-0.8-4.1-3.8-6.9-8.4-8.9c-2.6-1.1-5.8-2-8.9-2.1c0.1-0.6,0.1-1.2,0.1-1.7c0.2-0.5,0.2-1,0-1.4c0-0.8-0.2-1.7-0.6-2.3
		c-0.4-2.2-1.6-4.2-3.6-5.4c-2.2-1.3-5.4-2.1-8.4-2c0.2-3.2-0.6-5.7-3.4-7.9c-1.6-1.3-3.5-2.4-5.4-3c-1.2-0.3-7.7,0-7.8-1
		c-0.2-1.2-1.2-1.5-2.1-1.3c0.2-6.1,0.1-10.6-6.7-13.5c-3-1.3-6.2-1.7-9.3-0.6c-4.3,1.4-7.9,1.4-12.4,1.1c-0.6,0-1,0.1-1.3,0.4
		c-0.1-0.4-0.2-0.8-0.3-1.2c-0.2-0.7-0.7-1.1-1.2-1.3c0-0.1,0-0.2-0.1-0.3c-0.7-2.1-2.3-2.9-4.2-3.3c-2-1.5-4.4-2.5-7.2-2.6
		c-2.7-0.2-5.1,0.1-7.3,1c0,0,0,0,0,0c-0.1-0.4-0.4-0.8-0.8-1c-1.9-1.1-4.1-1.7-6-2.9c-0.4-0.2-0.8-0.3-1.2-0.3
		c-0.1-0.6-0.3-1.2-0.6-1.7c-1.3-2.4-4.5-4.3-7.2-4.7c-2.9-0.4-7.4,0.1-9.7,2c-2.1,1.7-2.8,4.3-2.8,6.9c-4.3,0.2-8.7,1.5-12.3,3.8
		c-1.7,1.1-3.3,2.4-4.3,4.1c-0.3,0.5-0.5,1-0.6,1.5c-4.8-4.6-12.8-5.9-18.9-3.7c-4.1,1.5-8.5,4.6-11.2,8c-1.3,1.7-1.9,3.5-2.1,5.3
		c0,0,0,0,0,0.1l0,0c0,0,0,0.1,0,0.1c-0.1,0.3-0.2,0.5-0.2,0.8l0,0.8c0,0.1,0,0.3-0.1,0.4c0,0,0,0,0,0c-1.8-0.5-3.6-0.8-5.4-0.6
		c-0.6,0-1,0.3-1.3,0.6c-0.2,0.1-0.5,0.1-0.7,0.2c-3.8,1.7-5.6,5.9-7.5,9.4c-0.6,0.5-1.3,0.9-2,1.3c-0.3,0.2-0.5,0.4-0.7,0.7
		c-3.4,0.2-6.6,0.3-9.6,1.7c0,0,0,0-0.1,0C48,50,47.2,50.4,46.4,51c-3.1,2.3-4.2,6.8-5.5,10.2c-0.1,0.3-0.1,0.5-0.1,0.7
		c-2.2,2.1-4.5,3.7-7.7,4.4c-1.8,0.4-3.3,1.1-4.7,2.1c-0.3,0-0.7,0.1-1,0.3c-2.5,1.6-4.1,3.8-5.4,6.4c-0.6,1.3-1.2,2.5-1.5,3.9
		c0,0.1,0,0.1,0,0.2c-0.1,0.1-0.2,0.3-0.2,0.5c-1.1,3.8-0.8,7.6,0.6,11.2c-1.4,0.1-2.8,0.4-4.2,0.9c-2.6,0.9-4.5,2.5-6,4.4
		c-0.8-0.5-1.9-0.4-2.4,0.7c-1.6,3.6-4,7.4-3.3,11.4c0.4,2.3,1.5,4.2,3.1,5.7c0,0,0,0.1,0.1,0.1c0.7,0.9,1.4,1.9,2.2,2.6
		c0.6,0.5,1.2,0.8,1.9,1c-2.3,1.2-5,2.9-6,5.2c-1,2.3,0,4.3,1.1,6.4c1.2,2.5,2.6,3.4,4.8,4.5c-2.1,2.8-2.6,6.6-0.3,10.6
		c1.3,2.3,3.7,3.6,5,5.6c2.1,3.2,3.8,5.8,7.7,7c0.2,0.1,1.1,0.3,1.9,0.5c0.1,0.7,0.2,1.3,0.5,1.9c1,3.3,2.9,6.2,5.3,8.7
		c1,1,2,1.9,3.2,2.6c0,0.1-0.1,0.1-0.1,0.2c-1.5,3.6-0.6,7.5,2.6,10c1.1,0.8,2.3,1.5,3.5,2c-1.2,1.2-1.7,3.9-1.9,5.3
		c-0.5,3.3-0.2,6.6,0.9,9.7c-0.2,0.3-0.2,0.7-0.2,1.1c0.7,5.3,0.2,10.6,0.9,15.8c0.4,3.1,1.3,5.3,4.4,6.3c0.2,0,0.3,0.1,0.5,0.1
		c-0.2,0.2-0.3,0.4-0.3,0.7c-0.2,0.4-0.2,0.9-0.2,1.3c-0.1,0.4-0.1,0.8,0.1,1.1c-0.1,0.4,0,0.9,0.2,1.3c0,0.2,0.1,0.4,0.1,0.5
		c-0.1,0.4-0.1,0.9,0.1,1.3c-0.1,0.4,0,0.9,0.2,1.3c0,0,0,0.1,0,0.1c-0.1,0.5-0.1,0.9-0.2,1.4c-0.1,0.6,0.1,1.1,0.5,1.4
		c0,0.4,0,0.7,0,1.1c0,0.3,0.1,0.6,0.2,0.8c-0.2,0.3-0.2,0.6-0.2,1.1c0.5,4.1,1.2,8.3,1.4,12.5c-0.2,0.3-0.3,0.6-0.2,1.1
		c0.4,5.2,1.5,10.3,2.4,15.4c0,0,0,0.1,0,0.1c-0.1,0.2-0.1,0.5-0.1,0.8c0.3,6.1,1.1,12,2.5,17.9c-0.3,0.3-0.4,0.7-0.4,1.2
		c0.7,8,0.8,15.5,3.1,23.3c0.1,0.2,0.1,0.3,0.2,0.5c0,0.1,0,0.3,0,0.4c0.3,4.5,1.2,8.9,2.1,13.3c-0.2,9.3,1.4,18.4,3.3,27.5
		c-0.1,0.2-0.1,0.4-0.1,0.7c0.3,4.4,1.3,8.7,2.4,12.9c-0.3,0.3-0.5,0.8-0.5,1.3c0,0.7,0,1.3,0.2,2c0,0.1,0.1,0.1,0.1,0.2
		c-3.5,5.8-6.5,12.9-5.8,19.8c0.3,2.9,1.2,6,2.7,8.6c1,1.8,2.4,3,3.9,4.1c0,0.2,0.1,0.4,0.3,0.6c1.2,1.8,2.2,2.5,4.2,2.8
		c5.6,3.4,13,3.1,19.3,3.2c7.7,0.1,15.4-0.1,23-0.6c2.7,1.1,6.3,1,9.6,1c7.9,0,15.9,0.1,23.8,0.1c0.3,0,0.5,0,0.7,0
		c1,0.5,2.3,0.7,3.7,0.5c14.8-2.8,29.9-2.2,44.9-2.5c6.8-0.1,14.9-1.1,20.3-4.9c1.8-0.1,3.6-1,4.5-2.7c2.1-3.7,2.6-7.6,1.9-11.8
		c0-0.1,0-0.2-0.1-0.2c0.1-0.5,0.1-1,0-1.5c-0.6-4.9-2-9.8-4.8-13.9c-0.7-6.7-0.8-12.5,0.6-19.3c0.2-0.8,0.2-1.6,0.1-2.4
		c0.3-1.1,0.6-2.2,0.8-3.3c0.1-0.6,0.1-1.1,0.1-1.7c3.7-0.4,7.3-0.6,11-0.9c0,0,0,0,0.1,0c0.2,0.1,0.5,0.1,0.8,0.1
		c1.1-0.1,2.2-0.3,3.3-0.4c0.2,0,0.4,0.1,0.6,0.1c5.2-0.4,10.4-1.2,15.6-1.6c0.3,0,0.6-0.1,0.9-0.3c5.7-1.8,11.7-1.8,17.4-4
		c4.9-1.9,9.1-4.8,12.9-8.5c0.1-0.1,0.2-0.3,0.3-0.4c0.3-0.1,0.7-0.2,1-0.5c1.9-1.8,3.6-3.9,5.1-6.1c1-1.2,2-2.5,2.8-3.7
		c1.3-2,2.4-4.1,3.3-6.3c0.8-1.4,1.5-2.8,2.3-4.1c0.3-0.6,0.3-1.1,0.1-1.6c2.3-4.2,4.4-8.6,6.4-12.9c0.1-0.1,0.2-0.1,0.2-0.2
		c2.8-3.5,4.7-7.2,5.6-11.6c1.1-5,2.9-9.3,4.6-14.1c0.2-0.4,0.1-0.8,0-1.2c2.2-4.4,2.5-10.2,3.4-15c2.8-1.5,4.3-5,3.4-8.4
		c3.7-9.2,7.4-18.1,8-28.1C326.3,201,327.1,189.9,325.5,179.8z M219.3,265.8c-1.8,5.6-3.6,11.2-5.1,16.9c-0.5,1.6,1.1,2.6,2.4,2.3
		c-0.3,0.7-0.1,1.4,0.3,1.9c-0.8,3.6-1.6,7.3-2.3,10.9c0,0.1-0.1,0.1-0.1,0.2c0,0.1-0.1,0.1-0.1,0.2c0,0-0.1,0.1-0.1,0.2
		c-0.3,0.4-0.6,0.7-1,1c-0.7,0.6-0.7,2,0,2.7c0,0,0.1,0.1,0.2,0.1c-3.7,6.8-5.4,15.5-7.5,22.5c-3,10.1-4.5,20.4-7.2,30.6
		c-1.3,0.9-2.3,2.3-2.5,4.3c-0.4,4.4-4.3,7.6-7.4,10.4c-3.9,3.4-7.9,6.8-12.8,8.8c-8.6,3.4-17.9,1.8-26.7,3.7
		c-0.5-0.1-1-0.2-1.5-0.3c-12.8-0.6-25.6-1-38.4-1.4c-1.6,0-2.9,0.5-3.8,1.4c-3.9-1.1-7.9-2.2-11.8-3.4c-4.9-1.5-9.8-3.4-14.7-4.8
		c-0.3-2.8-0.6-5.5-1-8.3c-0.4-2.7-3.5-4.3-6-4.1c-0.3-2.9-0.5-5.7-0.6-8.6c0-0.6-0.3-1.1-0.7-1.4c-1.1-6.8-2.8-13.6-3.7-20.5
		c0.8-0.1,1.5-0.7,1.4-1.8c-0.7-9-4.3-17.3-4.9-26.3c0-0.4-0.2-0.8-0.4-1c-1.5-6.3-2.8-12.6-3.9-18.9c-0.1-0.4-0.3-0.8-0.5-1
		c1.2,0.5,2.8,0,2.6-1.6c-1-8.5-3.9-16.8-6.2-25c-0.1-0.4-0.3-0.7-0.6-0.9c0.9-0.2,1.6-1.1,1.3-2.2c-1.6-5-2.9-10.1-4-15.3
		c-0.1-0.3-0.2-0.6-0.4-0.8c0.1-0.6-0.1-1.2-0.5-1.5c0.1-0.3,0.2-0.6,0.2-0.9c-0.4-3.8-0.9-7.6-1.6-11.4c-0.1-0.3-0.2-0.5-0.3-0.7
		c1.3,0,2.4-0.3,3.2-1.4c2-3,0.6-9.2,0.9-12.6c0.2-2.2,1.1-5.7,0.1-8c1.6-1,2.8-2.6,3.3-4.4c0.3-1,0.4-2,0.1-3c0-1-0.3-1.9-0.9-2.8
		c-0.2-0.3-0.4-0.5-0.6-0.8c1.3-2.1,1.5-4.7,0.7-7c0.1-0.1,0.1-0.1,0.2-0.2c0.3-0.3,0.6-0.7,0.8-1c2.5-1.8,3.4-5.2,2.7-8.1
		c0.3-0.5,0.5-1.1,0.6-1.6c0.1-0.1,0.3-0.3,0.4-0.4c2.8-4.3,7.4-3.9,11.5-6c3.1-1.6,6.3-4.2,8.3-7.1c2.4-3.5,1.1-8.1,4.6-10.8
		c1.2-1.8,2.3-1.9,3.5-0.2c1.1,0.3,1.7,0.9,1.8,1.8c0.2,0.5,0.3,1.2,0.4,1.8c-0.1,0.2-0.2,0.5-0.2,0.8c0,2,0.1,4,1.1,5.7
		c1.1,1.7,2.7,2.9,4.5,3.6c0.1,0,0.1,0,0.2,0.1c0.2,0.2,0.4,0.3,0.7,0.5c5.6,2.4,11.6,2.8,17.2,0.2c0.4-0.2,0.8-0.4,1.2-0.6
		c0.4,0.1,0.8,0,1.2-0.1c2.1-0.9,3.4-2.5,4.4-4.3c0.9-1.1,1.7-2.3,2.4-3.5c0.4-0.1,0.8-0.4,1-0.8c0.3-0.7,0.7-1.5,0.9-2.3
		c0.1-0.2,0.1-0.5,0.1-0.7c0.2-0.1,0.4-0.1,0.6-0.3c0.3,0,0.7-0.1,1-0.1c0.2,0.3,0.5,0.5,0.9,0.5c2.5,0.6,4.5,1.8,7.1,2
		c2.7,0.3,6.1,0.5,8.8-0.2c4.2-1,5.3-4.7,7.5-7.8c0.3-0.5,0.4-1,0.3-1.4c0,0,0-0.1,0-0.1c0.5-1.3,0.6-2.7,0.8-4.1
		c0.1-0.8-0.1-3.7,0.6-4.1c0.2-0.1,0.3-0.2,0.5-0.4c0.3,0.2,0.6,0.3,1,0.4c1.7,0.1,3.4-0.3,5-0.6c1.9-0.3,3.9-0.6,5.8-0.9
		c0.3,0,0.5-0.1,0.7-0.2c0.4,1.2,0.7,2.5,1.1,3.7c0.6,1.6,2.1,2.5,3.4,3.4c1.6,1.2,2.9,1.7,4.9,1.7c2,0.1,5.1-0.7,7.3-0.3
		c-0.2,0.5-0.3,1.1,0.1,1.7c0.9,1.4,1.9,3.4,3.5,4.1c1.1,0.5,2.6,0.5,3.9,0.3c0.3,0.4,0.8,0.7,1.4,0.7c1,0,1.6-0.6,1.7-1.3
		c1.9-0.7,3.6-2.1,4.5-3.9c3.1,8.6-4.8,17.6-0.8,26.3c0.6,1.4,1.3,2.2,2.1,2.7c0.5,1.4,2.5,2.1,3.3,0.4c0.2-0.4,0.4-0.9,0.5-1.3
		c1.5-1.4,2.8-3.9,3.4-5.9c0.4-1.4-0.8-2.3-1.9-2.3c0.1-1.3,0.2-2.6,0.4-3.8c0.2-0.2,0.3-0.4,0.4-0.7c0.7-2.2,2.1-3.9,3.8-5.4
		c6.6,1.2,11.5,6.1,18.5,6.2c0.7,0,1.4,0,2-0.1c-1.2,1.5-1.6,3.8-1.9,5.6c-0.2,1,0.3,2,1.3,2.3c0.2,0,0.3,0.1,0.5,0.1
		c-0.2,1.8-0.4,3.6-0.5,5.5c0,0.1,0,0.3,0,0.4c-0.1,0.1-0.1,0.2-0.1,0.4c-0.9,3.3-1.5,6.5-2,9.9c-1.9,0.4-3.9,0.9-5.8,1.3
		c-2.4,0.5-1.4,4.2,1,3.6c1.5-0.3,2.9-0.7,4.4-1c-0.1,0.7-0.1,1.3-0.2,2c0,0.8,0.4,1.3,0.9,1.6c-1.2,4.6-1.3,9.8-1.5,14.3
		c0,0.5,0.1,0.9,0.4,1.2c-0.8,6.4-1.6,12.8-2.4,19.2c-0.2,0.2-0.3,0.5-0.4,0.8c-1.5,7.9-2.7,15.9-3.8,23.9c-0.2,1.2,0.8,1.8,1.8,1.8
		c-0.8,4.6-1.7,9.2-2.8,13.7C218.2,264.7,218.7,265.4,219.3,265.8z M298.1,207.2c-1.6,7.2-2.4,14.5-3,21.9c0,0.4-0.1,0.7-0.1,1.1
		c-0.7,1.8-1.6,3.5-2.3,5.3c-0.6,1.3-0.6,2.6-0.3,3.8c-1,2-1.7,4-1.8,6.3c0,0.3-0.1,0.5-0.1,0.8c-0.8-0.1-1.8,0.3-2.1,1.2
		c-2.7,7-4.2,15-5.9,22.3c-0.1,0.2-0.1,0.4,0,0.7c-1.9,4.7-3.8,9.4-5.7,14.1c-0.2,0.1-0.4,0.3-0.5,0.6c-1.8,3.1-3.3,6.6-4.8,9.8
		c-1,2.2-1.6,4.4-2.3,6.7c-1.8,2.8-3.7,5.5-5.7,8.1c-1.7,1.4-3.9,2.3-6,3.1c-0.2,0-0.3-0.1-0.6,0c-4.7,0.3-9.2,0.8-13.8,0.6
		c-0.3,0-0.6,0.1-0.8,0.2c-3.1-0.8-5.7-2.2-8.3-4.1c-0.1-0.2-0.4-0.5-0.7-0.6c-0.3-0.2-0.6-0.4-1-0.6c-0.7-0.5-1.3-1.1-2-1.6
		c-0.1-0.1-0.3-0.2-0.5-0.3c-0.4-0.4-0.7-0.8-1-1.2c-0.3-0.4-0.6-0.6-1-0.8l-1.6-2.1c-0.3-0.4-0.7-0.9-1.1-1.3
		c0-0.2-0.1-0.5-0.3-0.7c-0.3-0.5-0.6-0.9-1-1.4c-0.1-0.2-0.3-0.4-0.4-0.6c-0.1-0.1-0.1-0.2-0.2-0.3c0,0,0,0,0,0c0,0,0-0.1,0-0.1
		c-0.1-0.2-0.2-0.5-0.4-0.6c0-0.1,0-0.2-0.1-0.2c-0.1-0.3-0.3-0.6-0.4-0.8c1.5-7,3-13.9,4.5-20.8c0.1-0.2,0.2-0.4,0.2-0.6
		c1.4-8,2.9-16,5.4-23.8c0.2-0.6,0.1-1.2-0.2-1.6c0-0.1,0.1-0.3,0.1-0.5c0-0.5,0-1,0-1.5c0.5-0.3,0.9-0.8,1-1.6
		c0.3-6.5,0.7-12.9,1.4-19.4c0.1-0.6-0.1-1-0.4-1.3c0.4-1.4,0.7-2.9,1.1-4.3c0.2-0.7,0-1.3-0.4-1.7c1.8-11.2,0.8-22.5,1.3-33.8
		c0.2-0.3,0.4-0.7,0.4-1.1l0-0.7c1.7-0.5,3.4-1,5-1.5c9.9-1.9,19.9-3.6,30-4.9c0.2,0,0.3-0.1,0.4-0.1c3.1,0.2,6.2,0.3,9.2,0.3
		c0.5,0,1,0,1.5,0c0.9,1.3,2.4,2.2,4.5,2.1c3.1-0.1,6.1-0.3,8.4,1.8c1.6,1.5,3.1,3,4.7,4.5c0.1,1.2,0.6,2.4,1.4,3.3
		C301,195.2,299.4,201.1,298.1,207.2z"/>
</g>
<g id="Capa_6">
	<g>
		<g>
			<path class="st1" d="M85.2,156.5c-0.1,0.1-0.3,0.2-0.4,0.3c-0.8,0.6-0.7,2,0,2.7c0.8,0.7,1.8,0.7,2.7,0c0.1-0.1,0.3-0.2,0.4-0.3
				c0.8-0.6,0.7-2,0-2.7C87.1,155.7,86,155.8,85.2,156.5L85.2,156.5z"/>
		</g>
	</g>
	<g>
		<g>
			<path class="st1" d="M88.2,156.6c-0.3-1.5-0.4-3.1-0.5-4.6c0-0.7,0-1.5,0.1-2.2c0.1-0.3,0.1-0.6,0.2-0.9c0.4-0.9,0.5-1.1,0.2-0.7
				c2.1-1.2,0.2-4.4-1.9-3.2c-3.6,2.1-2.2,9.4-1.6,12.6C85,160,88.6,159,88.2,156.6L88.2,156.6z"/>
		</g>
	</g>
	<g>
		<g>
			<path class="st1" d="M85.7,146.5c-0.1,3.7,0.1,7.4,1.2,10.9c0.8,2.7,1.9,6,4.5,7.3c2.1,1.1,4-2.1,1.9-3.2
				c-2.1-1.1-2.9-5.2-3.3-7.2c-0.5-2.6-0.6-5.2-0.5-7.8C89.5,144.1,85.8,144.1,85.7,146.5L85.7,146.5z"/>
		</g>
	</g>
	<g>
		<g>
			<path class="st1" d="M88.7,160.7c1.9,1.9,4.1,3.4,6.5,4.6c2.2,1.1,4.1-2.2,1.9-3.2c-2.1-1.1-4-2.4-5.7-4
				C89.7,156.4,87,159.1,88.7,160.7L88.7,160.7z"/>
		</g>
	</g>
	<g>
		<g>
			<path class="st1" d="M89.5,160.6c4.6,5.4,14.4,7.4,21,5.8c7.1-1.8,15.8-6.3,17.8-13.9c0.6-2.3-3-3.3-3.6-1
				c-1.6,6-9.5,10-15.2,11.3c-5.3,1.2-13.7-0.5-17.4-4.8C90.5,156.1,87.9,158.8,89.5,160.6L89.5,160.6z"/>
		</g>
	</g>
	<g>
		<g>
			<path class="st1" d="M126.1,151.4c2.5,2.1,5.3,3.7,8.4,4.8c2.3,0.8,3.2-2.8,1-3.6c-2.4-0.9-4.7-2.2-6.7-3.8
				C126.9,147.2,124.2,149.8,126.1,151.4L126.1,151.4z"/>
		</g>
	</g>
	<g>
		<g>
			<path class="st1" d="M156.8,142.5c2.4,0,2.4-3.8,0-3.8C154.3,138.7,154.3,142.5,156.8,142.5L156.8,142.5z"/>
		</g>
	</g>
	<g>
		<g>
			<path class="st1" d="M154.6,136.9c2.4,0,2.4-3.8,0-3.8C152.2,133.2,152.2,136.9,154.6,136.9L154.6,136.9z"/>
		</g>
	</g>
	<g>
		<g>
			<path class="st1" d="M155.1,136.8c0.1,0,0.2-0.1,0.4-0.1c0.9-0.3,1.6-1.3,1.3-2.3c-0.3-0.9-1.3-1.7-2.3-1.3
				c-0.1,0-0.2,0.1-0.4,0.1c-0.9,0.3-1.6,1.3-1.3,2.3C153.1,136.4,154.1,137.2,155.1,136.8L155.1,136.8z"/>
		</g>
	</g>
	<g>
		<g>
			<path class="st1" d="M152.9,134.9c0,5.2-0.1,10.2-4.3,13.9c-3.9,3.4-10,4.5-14.7,2.2c-2.2-1-4.1,2.2-1.9,3.2
				c5.6,2.7,12.7,2.2,17.8-1.6c6.2-4.6,6.8-10.5,6.9-17.8C156.7,132.5,152.9,132.5,152.9,134.9L152.9,134.9z"/>
		</g>
	</g>
	<g>
		<g>
			<path class="st1" d="M125.9,153.5c2.4,0,2.4-3.8,0-3.8C123.5,149.7,123.5,153.5,125.9,153.5L125.9,153.5z"/>
		</g>
	</g>
	<g>
		<g>
			<path class="st1" d="M126.6,152.5c2.4,0,2.4-3.8,0-3.8C124.2,148.8,124.2,152.5,126.6,152.5L126.6,152.5z"/>
		</g>
	</g>
	<g>
		<g>
			<path class="st1" d="M126.9,151.9c2.4,0,2.4-3.8,0-3.8C124.5,148.1,124.5,151.9,126.9,151.9L126.9,151.9z"/>
		</g>
	</g>
	<g>
		<g>
			<path class="st1" d="M126.8,151.5c2.4,0,2.4-3.8,0-3.8C124.4,147.8,124.4,151.5,126.8,151.5L126.8,151.5z"/>
		</g>
	</g>
	<g>
		<g>
			<path class="st1" d="M155.8,137c2.4,0,2.4-3.8,0-3.8C153.4,133.3,153.4,137,155.8,137L155.8,137z"/>
		</g>
	</g>
	<g>
		<g>
			<path class="st1" d="M154.6,136.5c2.4,0,2.4-3.8,0-3.8C152.2,132.8,152.2,136.5,154.6,136.5L154.6,136.5z"/>
		</g>
	</g>
	<g>
		<g>
			<path class="st1" d="M154.3,136.4c2.4,0,2.4-3.8,0-3.8C151.9,132.6,151.9,136.4,154.3,136.4L154.3,136.4z"/>
		</g>
	</g>
	<g>
		<g>
			<path class="st1" d="M154,136.4c2.4,0,2.4-3.8,0-3.8C151.6,132.6,151.6,136.4,154,136.4L154,136.4z"/>
		</g>
	</g>
	<g>
		<g>
			<path class="st1" d="M153.8,136.3c2.4,0,2.4-3.8,0-3.8C151.4,132.6,151.4,136.3,153.8,136.3L153.8,136.3z"/>
		</g>
	</g>
	<g>
		<g>
			<path class="st1" d="M155.8,136.2c1.5,0,3.1-0.2,4.6-0.7c1.1-0.4,2.5-1.3,3.7-1.3c-0.5-0.3-1.1-0.6-1.6-0.9c0,0-0.1,1.5-0.1,1.7
				c0,0.4,0,0.9,0,1.3c-0.1,0.1-0.3,0.3-0.5,0.3c-0.4,0.4-1.3,0.6-1.8,0.8c-0.4,0.1-0.8,0.2-1.1,0.3c-0.9-0.1-0.9,0.2-0.1,0.8
				c-0.3,0.5-0.6,1.1-0.9,1.6c1-0.7,2.4-0.7,3.6-1.1c1-0.4,1.9-0.9,2.7-1.8c1.6-1.8-1.1-4.5-2.7-2.7c-1.2,1.4-3.3,1.1-4.9,1.9
				c-1.5,0.7-2,2.4-1,3.8c1.8,2.7,6.8,0.6,8.8-0.8c1.4-1,1.8-2.3,1.8-3.9c0-1.3,0.3-3.3-0.6-4.4c-1-1.2-2.8-0.6-4-0.2
				c-2,0.7-3.6,1.4-5.7,1.4C153.3,132.4,153.3,136.2,155.8,136.2L155.8,136.2z"/>
		</g>
	</g>
	<g>
		<g>
			<path class="st1" d="M157.1,138.1c0.9,0.1,1.7,0.1,2.6,0.1c1,0,1.9-0.8,1.9-1.9c0-1-0.8-1.9-1.9-1.9c-0.9,0-1.7,0-2.6-0.1
				c-1-0.1-1.9,0.9-1.9,1.9C155.3,137.3,156.1,138,157.1,138.1L157.1,138.1z"/>
		</g>
	</g>
	<path class="st1" d="M229.2,156.6c-0.3,0-0.6,0.1-0.9,0.2c-0.2,0.1-0.5,0.2-0.7,0.3c-0.3-0.1-0.5-0.2-0.9-0.2
		c-0.4,0-0.8,0.1-1.1,0.1c-0.4,0-0.7,0.1-1,0.3c-2.3-0.2-4.6-0.8-6.9-1.6c-1.5-1.2-3.1-2.2-4.9-2.9c-0.1-0.1-0.3-0.1-0.4-0.2
		c0,0,0,0,0,0c0,0-0.1,0-0.1,0c-0.1,0-0.1,0-0.2,0c-0.1,0-0.1,0-0.2,0c0,0-0.1,0-0.1,0c-0.1,0-0.1,0-0.1,0c-0.1,0-0.1,0-0.2,0
		c-0.5-0.1-1.1,0-1.5,0.3c-0.9-0.3-1.9-0.1-2.4,0.9c0,0-0.1,0.1-0.1,0.1c-2,2-2.3,4.5-2.1,7.2c0.1,2.1,0.7,4.3,0,6.4
		c-0.8,2.6-2.8,4.9-5.3,6c-0.6-0.6-1.1-1.4-1.5-2c-0.5-0.8-1.3-1-2-0.8c-1.6-6.1-0.1-13,0.4-19.1c0-0.2,0-0.4,0-0.5
		c0.4-0.6,0.4-1.5,0.1-2.1c-0.2-0.3-0.5-0.6-0.8-0.7c0.1-0.1,0.2-0.2,0.3-0.3c1.7-1.7-0.9-4.4-2.7-2.7c-2.8,2.8-6.1,2.9-9.3,1.8
		c0.1-0.7-0.3-1.4-0.9-1.8c-0.5-0.3-1-0.7-1.5-1.1c0.4-0.5,0.5-1.1,0.1-1.8c0.1-0.8-0.3-1.6-1.3-1.8c-1.2-0.2-2.2-0.6-3.4-0.6
		c-1.5,0-2.9,0-4.4-0.2c-0.2,0-0.3,0-0.5,0c-0.3-0.2-0.5-0.3-0.9-0.5c-0.7-0.4-1.3-0.3-1.8,0c-0.8-0.8-1.7-1.7-2.3-2.7
		c-0.1-1.4-1.9-2.5-3.1-1.3c-1.8-1.4-4.2,1.2-2.5,2.8c0.1,0.1,0.3,0.2,0.4,0.3c-0.4,0.1-0.8,0.3-1.1,0.6c-0.8-0.4-1.6-0.8-1.8-1.3
		c-1.2-2.1-4.4-0.2-3.2,1.9c0.4,0.8,1.1,1.4,2,1.9c-0.1,0.1-0.3,0.1-0.4,0.2c-0.8,0.2-1.5,0.4-2.3,0.9c-2.3,1.3-3.8,3.6-5.7,5.4
		c-3.6,3.2-8,5-12.5,6.2c-2.1-0.9-4.3-1.7-6.6-2.3c-4.1-1.2-7.9,1.4-9.2,5.2c-1.3,3.8-7.4,5.6-10.8,6.6c-3.8,1.1-7.6,1.4-11.5,1.4
		c0.1-1-0.5-2-1.8-2c-0.1,0-0.1,0-0.2,0c-0.1-0.1-0.3-0.2-0.4-0.3c-3.1-1.2-6-3.1-8.4-5.4c-0.5-0.5-1.1-0.6-1.7-0.5
		c0.1-0.4,0.2-0.7,0.3-1.1c0.5-2.4-3.1-3.4-3.6-1c-1.2,6-6,8.2-10.8,10.4c-1.7,0.5-3.4,1.1-5.1,1.7c-3,1.1-5.3,3-6.3,6
		c-0.2,0.2-0.3,0.4-0.4,0.6c-3.4,7.4-6,15.9-7,24c-1,7.7-1,15.4-2.8,22.9c-0.5-0.1-1-0.1-1.4,0.2c-1,0.1-1.9,1-1.4,2.2
		c0.1,0.1,0.1,0.3,0.2,0.4c-0.1,2.6,0.6,5.1,1,7.7c0.4,2,0.6,4,1.3,6c0.4,3.4,1,6.8,1.9,10.1c0,0.1,0.1,0.1,0.1,0.2
		c0.3,2.1,0.7,4.2,1.1,6.2c0,0.2,0.1,0.3,0.2,0.5c0.2,3.5,0.9,7.1,1.6,10.5c0.1,0.4,0.2,0.7,0.4,0.9c-0.3,0.8-0.1,1.8,0.6,2.3
		c0.3,2.4,1,5.2,1,5.4c0.1,0.2,0.1,0.4,0.3,0.6c0.2,1.1,0.3,2.2,0.5,3.2c0.2,1.5,0.4,2.5,0.9,3.2c-0.1,0.2-0.1,0.5-0.1,0.7
		c0.1,6.6,1.2,14.2,3.9,20.3c0,0.1,0,0.1,0,0.2c0.5,3.8,1.3,7.4,1.4,11.3c0.1,3.2,0.7,6.4,1.7,9.4c0,0.2,0,0.5,0,0.8
		c0.4,1.7,1,3.5,1.6,5.2c-0.9,0.4-1.6,1.5-0.9,2.6c1.5,2.5,1.7,5.4,1.8,8.3c0.1,1.1,0.8,1.7,1.7,1.8c0.1,0.8,0.2,1.7,0.2,2.5
		c0,0.4,0.2,0.8,0.4,1.1c0.1,1.4,0.1,2.7,0.2,4.1c0.2,3.2,1,6.3,1.2,9.5c0,0.7,0.4,1.2,0.9,1.5c0.3,2.6,0.8,4.9,2.2,7.1
		c0.5,3.4,1.7,6.9,4.6,8c0.7,0.3,1.3,0.1,1.7-0.3c4.9,2.9,10.6,3.7,16.2,4.6c6.4,1,12.9,2,19.4,2.4c2.7,1.2,5.5,1.3,8.4,1.4
		c4.7,0.2,9.5,0.1,14.2,0.2c0.5,0,0.9-0.2,1.2-0.4c2.2,0,4.4-0.2,6.6-0.3c0.3,0.5,0.8,0.8,1.5,0.8c10.3-0.1,20.7-1.5,30-5.7
		c0.7,0.5,1.7,0.3,2.4-0.2c1.6-1.3,3.5-2.3,4.9-3.7c0,0,0,0,0.1,0c0.4,0.2,0.9,0.3,1.5,0.3c4.1-0.4,8.5-6.8,10.1-10.1
		c2.6-5.3,3.3-11.3,4.3-17c0.1-0.4,0-0.8-0.1-1.1c0.5-0.2,0.9-0.6,1.1-1.2c2-6.3,3.1-12.8,3.5-19.4c1.4-4.6,2.5-9.4,2.9-14.1
		c2.1-7.2,4-14.4,4.7-21.7c0.1-0.5-0.1-0.9-0.4-1.2c1.1-3.9,2-7.8,2.7-11.8c0.1-0.6,0-1-0.3-1.4c0.3-1.1,0.6-2.3,0.5-3.5
		c0-0.2-0.1-0.4-0.1-0.5c0.5-2.2,1-4.5,1.4-6.7c0.6-0.1,1-0.5,1.2-1.3c1.3-4.7,1.3-9.5,1.2-14.4c0-0.2,0-0.4-0.1-0.6
		c0.5-2.2,0.9-4.5,1.2-6.7c0.3-0.3,0.4-0.7,0.5-1.2c0.1-3.1,0.5-6.2,1.3-9.2c0.1-0.6,0-1.1-0.2-1.4c0.1-0.2,0.1-0.4,0.1-0.6
		c0.1-2.7,0.4-5.3,1-7.9c0.1-0.4,0.1-0.8-0.1-1.2c0.1-0.3,0-0.7-0.1-1.1c0.9-1.7,1.2-3.8,1.1-5.7c0-0.7-0.3-1.1-0.8-1.4
		c0.7-4.3,1.5-8.7,1.4-13c0.2-0.2,0.3-0.4,0.4-0.7c0.1-0.1,0.1-0.3,0.1-0.5c0.6-3.6,0.9-7.2,0.8-10.8c0.3-1.6,0.5-3.2,0.6-4.8
		c1.4-1.6,0.8-5.3,0.8-7.1c0.2-0.6,0.4-1.1,0.5-1.7c0.2-1.1,0.2-2.2,0.1-3.3c0-0.1,0-0.2,0-0.3c0-0.1,0.1-0.1,0.1-0.2
		c0.2-0.8,0.4-1.6,0.4-2.4c0.1-0.6,0-1.3,0.1-1.9c0.1-0.2,0.1-0.4,0.1-0.6v-1.4c0,0,0-0.1,0-0.1c0.1-0.3,0.2-0.6,0.3-1
		c0.2-0.8,0.2-1.4,0.1-2.2C231.3,158.2,230.8,156.6,229.2,156.6z M72.5,325.2c-0.2-0.5-0.6-0.8-1.1-1c-0.4-4.1-0.9-8.2-1.7-12.2
		c0.5-0.1,0.9-0.3,1.1-0.8c0.9,0,1.7-0.6,1.7-1.8c0-0.2,0-0.3,0-0.5c1.4,4.4,2.8,8.8,4.4,13.3C75.1,322.7,73.5,323.7,72.5,325.2z
		 M80.3,370.1c-0.2-0.4-0.3-0.8-0.5-1.3c0.4,0.4,0.8,0.8,1.3,1.1C80.8,369.9,80.6,370,80.3,370.1z M87.7,180.4
		c-5.3,3.5-10.7,7.2-15.1,11.7c0-0.5-0.1-0.9-0.1-1.4c-0.1-1-0.4-2-0.8-2.9c0.1-0.1,0.3-0.2,0.4-0.3c5-2.6,9.1-6.5,14.9-7.3
		c0.3,0,0.7-0.1,1-0.1C87.9,180.2,87.8,180.3,87.7,180.4z M187.2,189c-0.4-0.5-0.8-1.1-1.2-1.6c0.5,0.2,1,0.5,1.6,0.6
		C187.5,188.3,187.4,188.6,187.2,189z M190.2,166.3c-0.8,0.1-1.4,0.5-1.6,1.3c-0.8-1.4-1.5-2.8-2.2-4.2c1.8-0.4,3.1-1.6,4-3.2
		c-0.2,1.5-0.4,2.9-0.8,4.4C189.5,165.2,189.8,165.8,190.2,166.3z M201.5,270.2c0.1-0.6,0.1-1.3,0.2-1.9c0.2,0,0.5,0,0.7,0
		C202.1,269,201.8,269.6,201.5,270.2z M215.9,196.9c0,1.6,0,3.2,0,4.7c0,0-0.1,0-0.1,0c0-1.6,0-3.3,0-4.9
		C215.8,196.8,215.8,196.8,215.9,196.9C215.9,196.9,215.9,196.9,215.9,196.9z"/>
</g>
<g id="Capa_7">
	<g>
		<g>
			<path class="st2" d="M178.8,157.3c-0.7,47.6,4.1,95.1,3.5,142.7c-0.1,7.7,11.9,7.7,12,0c0.6-47.6-4.3-95.1-3.5-142.7
				C190.9,149.6,178.9,149.6,178.8,157.3L178.8,157.3z"/>
		</g>
	</g>
	<g>
		<g>
			<path class="st2" d="M64.3,266.9c2.4,0,2.4-3.8,0-3.8C61.9,263.1,61.9,266.9,64.3,266.9L64.3,266.9z"/>
		</g>
	</g>
	<g>
		<g>
			<path class="st2" d="M68.3,273.2c2.4,0,2.4-3.8,0-3.8C65.9,269.5,65.9,273.2,68.3,273.2L68.3,273.2z"/>
		</g>
	</g>
	<g>
		<g>
			<path class="st2" d="M119,287.2c2.4,0,2.4-3.8,0-3.8C116.6,283.5,116.6,287.2,119,287.2L119,287.2z"/>
		</g>
	</g>
	<g>
		<g>
			<path class="st2" d="M175.7,370.5c2.4,0,2.4-3.8,0-3.8C173.3,366.8,173.2,370.5,175.7,370.5L175.7,370.5z"/>
		</g>
	</g>
	<g>
		<g>
			<path class="st2" d="M105,374.2c2.4,0,2.4-3.8,0-3.8C102.6,370.5,102.6,374.2,105,374.2L105,374.2z"/>
		</g>
	</g>
	<g>
		<g>
			<path class="st2" d="M198.3,327.5c2.4,0,2.4-3.8,0-3.8C195.9,323.8,195.9,327.5,198.3,327.5L198.3,327.5z"/>
		</g>
	</g>
	<g>
		<g>
			<path class="st2" d="M146.3,259.5c2.4,0,2.4-3.7,0-3.7C143.9,255.8,143.9,259.5,146.3,259.5L146.3,259.5z"/>
		</g>
	</g>
	<g>
		<g>
			<path class="st2" d="M133.7,255.5c2.4,0,2.4-3.8,0-3.8C131.3,251.8,131.2,255.5,133.7,255.5L133.7,255.5z"/>
		</g>
	</g>
	<g>
		<g>
			<path class="st2" d="M149.3,184.2c2.4,0,2.4-3.8,0-3.8C146.9,180.5,146.9,184.2,149.3,184.2L149.3,184.2z"/>
		</g>
	</g>
	<g>
		<g>
			<path class="st2" d="M121.7,169.9c2.4,0,2.4-3.8,0-3.8C119.3,166.1,119.2,169.9,121.7,169.9L121.7,169.9z"/>
		</g>
	</g>
	<g>
		<g>
			<path class="st2" d="M72,175.2c2.4,0,2.4-3.8,0-3.8C69.6,171.5,69.6,175.2,72,175.2L72,175.2z"/>
		</g>
	</g>
	<g>
		<g>
			<path class="st2" d="M160.3,157.9c2.4,0,2.4-3.8,0-3.8C157.9,154.1,157.9,157.9,160.3,157.9L160.3,157.9z"/>
		</g>
	</g>
	<g>
		<g>
			<path class="st2" d="M155.3,343.9c2.4,0,2.4-3.8,0-3.8C152.9,340.1,152.9,343.9,155.3,343.9L155.3,343.9z"/>
		</g>
	</g>
	<g>
		<g>
			<path class="st2" d="M112.7,355.5c2.4,0,2.4-3.8,0-3.8C110.3,351.8,110.2,355.5,112.7,355.5L112.7,355.5z"/>
		</g>
	</g>
	<g>
		<g>
			<path class="st2" d="M90.3,331.9c2.4,0,2.4-3.8,0-3.8C87.9,328.1,87.9,331.9,90.3,331.9L90.3,331.9z"/>
		</g>
	</g>
</g>
<g id="Capa_4">
	<g>
		<g>
			<g>
				<path class="st3" d="M49.4,230.9c0-0.1,0-0.1,0-0.2c-0.1-0.7-0.3-1.6,0,0C49.4,230.7,49.5,230.8,49.4,230.9
					c0.1,0.1,0.4,1.9,1,4.7c2.5,12.3,5.1,25.6,7.9,39.7c3.3,16.8,6.7,34.6,10,53c1.7,9.2,3.3,18.5,4.8,28c0.4,2.4,0.7,4.7,1.4,6.9
					c0.6,2.2,1.4,4.4,2.7,6.3c1.2,1.8,2.9,3.4,4.8,4.2l3.3,1.3l3.4,1.2c9.2,3,18.8,4.5,28.6,5.3c9.8,0.7,19.7,0.8,29.5,0.7
					c1.2-0.1,2.4-0.1,3.6-0.2l3.7-0.3c2.5-0.2,4.9-0.5,7.3-0.8c4.9-0.6,9.7-1.5,14.3-2.7c4.6-1.2,9-3.2,12.9-5.9
					c1.9-1.3,3.7-2.9,5.2-4.6c1.5-1.8,2.8-3.7,3.7-5.7c0.4-1,0.8-2.1,0.9-3.1c0.2-1.2,0.4-2.4,0.6-3.7c0.1-0.6,0.3-1.3,0.5-1.8
					l0.5-1.7l0.9-3.5c0.6-2.3,1.2-4.6,1.9-7c0.6-2.3,1.1-4.6,1.7-7c2.3-9.2,4.3-18.4,6.1-27.5c3.6-18.1,6.5-35.8,8.8-52.6
					c2.3-16.8,4.3-32.7,5.9-47.4c2.7-23.3,4.4-38.8,4.4-38.8s0.6-4.7,1-8c0.6-5.6,0.3-3.4,0.1,0.1c0,0.4-0.7,8.3-0.7,8.3
					s0,0.4-0.1,1.2c-0.1,1.4-0.3,3.1-0.4,5c-1,11.8-2.2,25.1-3.6,39.6c-2.9,29-6.6,62.9-13.8,98.8c-1.8,9-3.8,18.1-6.1,27.2
					c-1.1,4.6-2.4,9.2-3.6,13.8c-0.3,1.1-0.5,2.2-0.7,3.3l-0.3,1.7c-0.1,0.7-0.2,1.3-0.4,1.9c-0.7,2.5-2,4.8-3.5,6.8
					c-1.5,2-3.3,3.9-5.2,5.5c-2,1.6-4.1,2.9-6.3,4.1c-2.2,1.2-4.5,2.1-6.9,2.9c-2.4,0.8-4.8,1.4-7.2,1.9c-4.8,1-9.7,1.7-14.6,2.2
					c-2.4,0.2-4.9,0.5-7.3,0.7l-3.8,0.2l-3.7,0c-9.8,0-19.6-0.2-29.4-1.3c-9.8-1-19.5-3-28.6-6.5l-3.4-1.4c-0.6-0.2-1.2-0.6-1.8-0.9
					c-0.5-0.4-1.1-0.8-1.6-1.2c-1-0.9-1.9-1.9-2.6-3c-0.7-1.1-1.3-2.2-1.8-3.4c-1-2.3-1.6-4.7-2-7.1c-0.4-2.4-0.7-4.7-1.1-7.1
					c-1.5-9.3-2.9-18.6-4.4-27.6c-3-18.1-6.1-35.7-9-52.4c-2.3-13.4-4.5-26.2-6.6-37.9C49.8,232.9,49.4,231,49.4,230.9z"/>
			</g>
		</g>
	</g>
	<g>
		<g>
			<g>
				<path class="st3" d="M236.2,171.6c0-0.1,0-0.1,0-0.2c0.1-0.7-0.1-1.7,0.1,0c0,0,0,0.2,0,0.2c0.2,1.7,0.3,3.4,0.5,5.1
					c0.9,10.7,1.1,21.5,0.8,32.2c-0.1,2.7-0.2,5.4-0.3,8.1c-0.2,2.7-0.3,5.4-0.6,8.1c-0.5,5.4-1,10.7-1.7,16.1
					c-0.7,5.3-1.5,10.7-2.5,15.9c-1,5.3-2.1,10.6-3.3,15.8c-1.3,5.2-2.6,10.4-4.2,15.6l-1.1,3.6c0,0-1.5,4.5-2.6,7.6
					c-0.9,2.7-1.1,3.5-1,3.2c0.1-0.3,0.4-1.7,0.9-3.4c0,0.2,0.5-1.9,0.9-3.9c0.5-2.1,0.9-4.2,0.9-4.2l1.1-5.1
					c1.1-5.1,2.2-10.3,3.1-15.5c1-5.2,1.9-10.3,2.7-15.5c0.8-5.2,1.6-10.4,2.2-15.6c0.7-5.2,1.2-10.4,1.7-15.7
					c0.5-5.2,0.9-10.5,1.2-15.7c0.7-10.5,1-21,1.1-31.5L236.2,171.6z"/>
			</g>
		</g>
	</g>
	<g>
		<g>
			<g>
				<path class="st3" d="M257.2,150.6c-0.1,0-0.1,0-0.2,0c-0.7,0-1.7,0,0,0C257,150.5,257.1,150.5,257.2,150.6
					c0.1-0.1,2-0.1,4.8-0.2c0.7,0,1.5,0,2.3,0c2.4,0,4.8,0.1,7.3,0.2c5,0.3,10.1,0.8,15.3,1.6c5.2,0.8,10.5,1.9,15.9,3.4
					c2.7,0.8,5.3,1.7,8,2.8c2.6,1.1,5.2,2.6,7.5,4.5c1.2,1,2.2,2.1,3.1,3.2c0.9,1.2,1.8,2.4,2.6,3.7c1.5,2.6,2.8,5.4,3.4,8.5
					c1,6,1.4,11.9,1.3,18c-0.1,3-0.3,6.1-0.8,9.2c-0.6,3-1.3,5.9-1.9,8.9l-1,4.4l-1.1,4.4c-0.7,3-1.4,5.9-2.1,8.9
					c-3,11.8-6.3,23.5-10.2,34.8c-3.9,11.3-8.3,22.3-13.6,32.5c-2.6,5.1-5.5,9.9-8.4,14.6c-0.8,1.1-1.5,2.3-2.3,3.4
					c-0.8,1.1-1.6,2.2-2.3,3.3c-0.8,1.1-1.6,2.2-2.4,3.2c-0.8,1-1.6,2.2-2.6,3.1c-2,1.9-4.2,3.4-6.5,4.6c-0.6,0.3-1.1,0.6-1.7,0.9
					c-0.6,0.3-1.2,0.6-1.7,0.8c-1.2,0.5-2.3,1-3.5,1.3c-4.7,1.6-9.3,2.7-13.8,3.5c-4.5,0.8-8.8,1.3-13,1.6c-2.1,0.2-4.1,0.3-6,0.4
					c-1.1,0-2.2,0.1-3.3,0.1c-0.6,0-1,0-1.4,0c-0.8,0-1.2,0-1.2,0s-4.7,0.1-8.1,0.2c-5.6,0.2-3.4,0.2,0.1-0.1c0.4,0,8.3-0.7,8.3-0.7
					s0.4,0,1.2-0.1c1-0.1,2.2-0.2,3.6-0.3c1.8-0.1,3.7-0.3,5.6-0.5c1.9-0.2,3.9-0.4,5.9-0.8c4-0.6,8.2-1.4,12.5-2.5
					c4.3-1.1,8.7-2.5,13-4.5c4.2-2.1,8.4-4.6,11.1-8.8c3-4.1,5.9-8.5,8.6-13.1c1.4-2.3,2.7-4.7,4-7c0.7-1.2,1.2-2.4,1.9-3.7
					c0.6-1.2,1.3-2.5,1.8-3.7c9.5-20.1,16.4-43,22.3-66.1l2.1-8.7c0.7-2.9,1.3-5.8,2-8.7l1-4.3c0.4-1.5,0.6-2.8,0.8-4.3
					c0.4-2.9,0.5-5.8,0.6-8.7c0-2.9-0.1-5.8-0.3-8.7c-0.1-1.4-0.2-2.9-0.4-4.3c-0.2-1.5-0.3-2.8-0.7-4.1c-0.7-2.6-2-5.2-3.5-7.5
					c-1.5-2.3-3.3-4.4-5.4-6c-2.2-1.6-4.6-2.9-7.1-4c-2.5-1.1-5.1-1.9-7.7-2.7c-5.2-1.5-10.3-2.7-15.4-3.7c-5.1-0.9-10.1-1.6-14.9-2
					c-2.4-0.2-4.8-0.4-7.2-0.5c-0.5,0-1,0-1.4-0.1C259.1,150.6,257.3,150.6,257.2,150.6z"/>
			</g>
		</g>
	</g>
	<g>
		<g>
			<g>
				<path class="st3" d="M237.4,183.1c-0.1,0-0.1,0-0.2,0c-0.7,0.1-1.6,0.3-0.1,0C237.2,183.1,237.4,183.1,237.4,183.1
					c0.1-0.1,1.9-0.5,4.6-1.1c2.4-0.6,4.9-1.1,7.5-1.7c3.8-0.9,7.8-1.7,11.9-2.5c8.2-1.4,17.3-2.1,26.4,0c1.1,0.3,2.3,0.6,3.4,0.9
					c1.1,0.4,2.2,0.8,3.4,1.2c2.4,1.1,4.3,2.9,5.5,5.2c1.2,2.3,1.7,4.8,1.8,7.3c0.1,2.5-0.2,4.9-0.6,7.3c-1.1,4.7-1.8,9.3-2.8,14.1
					c-0.5,2.4-1,4.7-1.5,7.1c-0.5,2.4-1.1,4.7-1.6,7.1c-4.5,18.8-10.3,37.2-17.1,54c-3.4,8.4-7,16.3-10.7,23.7l-0.3,0.7
					c-0.1,0.1-0.1,0.2-0.2,0.3l-0.3,0.2l-0.3,0.3l-1.2,1.1c-0.8,0.6-1.6,1.3-2.5,1.9c-1.7,1.2-3.6,2.1-5.5,2.8
					c-3.8,1.4-7.7,1.8-11.4,1.6c-1.8-0.2-3.6-0.5-5.3-1c-0.9-0.2-1.7-0.6-2.5-0.9c-0.4-0.1-0.8-0.4-1.2-0.5l-0.6-0.3l-0.3-0.1
					c-0.1-0.1-0.2-0.1-0.3-0.2c-1.3-0.9-2.6-1.9-3.9-2.9c-0.6-0.5-1.2-1-1.8-1.5l-0.3-0.3c-0.4-0.4-0.8-0.7-1.1-1
					c-0.6-0.5-0.9-0.9-0.9-0.9s-0.8-0.9-1.9-2.1c-0.5-0.6-1.1-1.3-1.6-2.1c-0.3-0.4-0.5-0.8-0.7-1.2c-0.2-0.4-0.5-0.8-0.6-1.1
					c-0.7-1.2-1-2.1-1.2-2.6c-0.2-0.5-0.2-0.6-0.2-0.5c0.1,0.3,0.6,1.6,1.5,3.1c0-0.1,0.2,0.3,0.6,1c0.4,0.6,1.1,1.5,1.7,2.3
					c1.4,1.6,3,3,3,3s0.3,0.3,0.9,0.8c0.1,0.1,0.3,0.3,0.5,0.4c0.1,0.1,0.2,0.2,0.3,0.2l0.1,0.1l0.2,0.2l0.4,0.3
					c0.3,0.2,0.6,0.4,0.8,0.6c1.1,0.8,2.4,1.7,3.6,2.5l0.5,0.3l0.2,0.2c0.1,0.1,0.1,0,0.2,0.1c0.3,0.1,0.7,0.3,1.1,0.4
					c0.7,0.3,1.4,0.5,2.2,0.8c3,1,6.3,1.3,9.7,1c1.7-0.2,3.4-0.5,5.1-1c1.7-0.5,3.4-1.2,5-2.1c1.6-0.9,3.1-2,4.5-3.3l1-1
					c0,0.1,0.3-0.6,0.5-1c0.4-0.9,0.8-1.8,1.3-2.7c3.4-7.4,6.7-15.2,9.8-23.5c6.3-16.5,11.8-34.6,16.2-53c1.1-4.6,2.1-9.2,3.1-13.8
					c0.5-2.3,0.9-4.6,1.4-6.9l0.4-1.7l0.4-1.7c0.2-1.1,0.5-2.2,0.6-3.4c0.3-2.2,0.5-4.5,0.3-6.6c-0.2-2.2-0.8-4.2-2-5.9
					c-0.6-0.9-1.3-1.5-2.1-2.2c-0.4-0.3-0.8-0.5-1.3-0.8c-0.5-0.2-1-0.4-1.5-0.6c-1-0.4-2-0.8-3.1-1.1c-1.1-0.3-2.1-0.7-3.2-0.9
					c-4.2-1-8.6-1.4-12.8-1.4c-4.3,0-8.4,0.4-12.5,1c-4.1,0.5-8,1.2-11.8,1.9c-1.9,0.3-3.8,0.7-5.6,1c-0.4,0.1-0.8,0.1-1.2,0.2
					C239.4,182.9,237.5,183.1,237.4,183.1z"/>
			</g>
		</g>
	</g>
	<g>
		<g>
			<g>
				<path class="st3" d="M217.6,327.7c0-0.1,0-0.1,0-0.2c0-0.7-0.1-1.7,0,0C217.6,327.5,217.6,327.7,217.6,327.7
					c0.1,0.7,0.1,1.4,0.1,2.1c0,0.7,0,1.4,0,2.1l0,0.5l0,0.3l0,0.1c0-0.1,0,0.5,0,0.8l-0.1,1.2c-0.5,6.4-1.7,12.7-2.3,19
					c-0.3,3.1-0.5,6.4-0.3,9.4c0.3,3.1,1.8,5.9,3.1,8.8c0.3,0.7,0.6,1.5,0.9,2.3c0.2,0.7,0.5,1.5,0.7,2.2c0.5,1.5,1,3.1,1.4,4.6
					c0.8,3.1,1.1,6.6,0.1,9.9l0,0c-0.2,0.5-0.3,1-0.5,1.5l-0.3,0.7c0,0.1-0.1,0.2-0.2,0.3l-0.1,0.2l-0.2,0.3
					c-0.6,0.8-1.3,1.6-2.1,2.3c-1.5,1.4-3.3,2.6-5.1,3.5c-3.7,1.8-7.7,2.7-11.5,3.8l-0.7,0.2l-0.4,0.1l-0.2,0.1
					c-0.1,0-0.2,0.1-0.4,0.1l-1.5,0.1c-1,0.1-2,0.1-3,0.2c-2,0.1-4,0.2-6,0.2l-11.9,0.1c-2,0-3.9,0.1-5.9,0.2
					c-2,0.1-3.9,0.3-5.9,0.4c-4,0.3-8,0.4-12,0.6c-8,0.3-15.9,0.3-23.9,0.2c-15.9-0.2-31.8-0.9-47.7-1.5l-5.9-0.2l-1.5-0.1
					c-0.5,0-1.1,0-1.6-0.1c-1.1-0.1-2.2-0.4-3.2-0.7c-2.1-0.7-4-1.7-5.7-3.1c-0.8-0.7-1.6-1.5-2.3-2.3c-0.6-0.9-1.3-1.7-1.8-2.6
					c-2.2-3.6-3.5-7.8-3.6-12c-0.2-4.2,0.6-8.3,1.8-12.2c0.6-1.9,1.4-3.9,2.2-5.7c0.2-0.5,0.4-0.9,0.6-1.4l0.3-0.5c0,0,0,0,0,0
					l-0.4-3l-1.6-11.8c-1.1-7.9-2.1-15.8-3-23.7c-1.9-15.8-3.6-31.6-5.3-47.4l-2.4-23.7l-1.8-19.5l-0.2-2.6c0,0-0.4-4.7-0.7-8
					c-0.5-5.6-0.4-3.4,0.1,0.1c0,0.4,1.1,8.3,1.1,8.3l6.3,50.8c1.9,15.5,3.9,30.9,6,46.3l3.2,23.1l0.8,5.8l0.4,2.9l0.2,1.4l0.1,0.9
					c0,0.2,0.1,0.5,0,0.7l-0.3,0.6c-1.7,3.4-3,7-3.8,10.7c-0.8,3.7-1,7.4-0.4,11c0.7,3.6,2.2,6.9,4.6,9.7c2.2,2.7,5.6,4.4,9,4.9
					c0.4,0,0.9,0.1,1.3,0.1l1.5,0l2.9,0.1l5.8,0.2c15.6,0.6,31.1,1.3,46.7,1.5c7.8,0.1,15.5,0.1,23.3-0.1c3.9-0.1,7.8-0.3,11.6-0.5
					c3.9-0.3,7.9-0.5,11.8-0.5l11.7,0c1.9,0,3.9-0.1,5.8-0.1c1-0.1,1.9-0.1,2.9-0.2l0.7-0.1l0.2,0c0.1,0,0,0,0,0l0.3-0.1l1.4-0.4
					c3.8-1,7.6-1.8,10.9-3.4c1.7-0.8,3.2-1.8,4.6-3.1c0.7-0.6,1.3-1.3,1.9-2l0.2-0.3c0.1-0.1,0,0,0.1-0.2l0.3-0.6
					c0.2-0.4,0.3-0.9,0.5-1.3l0,0c0.9-2.8,0.8-6,0.1-9c-0.3-1.5-0.8-3-1.2-4.5c-0.2-0.8-0.5-1.5-0.7-2.3c-0.2-0.7-0.5-1.5-0.7-2.2
					c-1.1-2.9-2.7-5.9-2.9-9.2c-0.1-3.3,0.2-6.5,0.6-9.6c0.8-6.3,2.2-12.6,2.9-18.9l0.2-2.1l0-0.3l0-0.5c0.1-0.7,0.1-1.4,0.1-2.1
					C217.6,329.2,217.6,328.4,217.6,327.7z"/>
			</g>
		</g>
	</g>
	<g>
		<g>
			<g>
				<path class="st3" d="M42,180.4c0-0.1,0-0.1,0.1-0.2c0.4-0.6,0.8-1.5,0.1,0C42.2,180.3,42.1,180.4,42,180.4
					c-0.6,1.6-1.2,3.2-1.6,4.9c-0.5,2.2-0.8,4.4-0.7,6.6c0,2.2,0.7,4.3,1.3,6.5c1,4.4,1.4,9,1.3,13.5c0,2.2-0.2,4.5,0.8,6
					c1,1.5,3,2.6,4.8,2.8c0.9,0.1,1.7-0.1,2.2-0.6c0.5-0.5,0.8-1.3,0.9-2.3c0.3-2,0.2-4.3,0.2-6.5c0-9,1.1-18.2,3.6-26.9
					c0.6-2.2,1.3-4.4,2.2-6.5c0.2-0.6,0.4-1,0.6-1.5c0.2-0.5,0.3-1,0.5-1.5c0.3-1.1,0.6-2.2,1.1-3.3c0.5-1.1,1.1-2.3,2-3.3
					c0.9-1,1.9-1.8,3.2-2.4c0.6-0.3,1.3-0.5,1.9-0.6l1.6-0.3c1-0.2,2-0.5,2.9-0.9c3.8-1.7,7.5-4.3,9.5-7.7c1-1.7,1.6-3.6,1.8-5.8
					c0.1-1.1,0.1-2.2,0.4-3.5c0.1-0.6,0.3-1.4,0.8-2.1c0.5-0.7,1.2-1.3,2-1.6c0.7-0.3,1.5-0.4,2.3-0.3c0.8,0.1,1.6,0.4,2.3,1
					c0.7,0.7,1,1.5,1.1,2.2c0.1,0.7,0.1,1.3,0.1,1.9c0,2.3-0.2,4.4,0.6,6.1c0.3,0.9,0.9,1.7,1.6,2.4c0.7,0.7,1.5,1.4,2.3,2
					c1.7,1.1,3.7,2,5.8,2.5c2.1,0.5,4.2,0.9,6.3,0.7c2.1-0.1,4.3-0.6,6.3-1.4c4-1.5,7.4-4.6,9.5-8.5c0.1-0.2,0.3-0.5,0.4-0.7
					l0.3-0.5l0.1-0.2l0.1-0.3c0.1-0.2,0.2-0.5,0.3-0.7c0.2-0.5,0.3-0.9,0.4-1.4c0,0,0.1-0.3,0.2-0.7c0.1-0.5,0.2-1.1,0.2-1.9
					c0-0.8,0-1.7-0.2-2.6c-0.2-0.9-0.4-1.8-0.8-2.5c-0.5-1.3-1.1-2.1-1.3-2.5c-0.3-0.4-0.4-0.5-0.3-0.4c0.2,0.2,1.1,1.4,1.8,3
					c-0.1-0.2,0.9,1.7,1.2,3.9c0.1,0.5,0.1,1.1,0.2,1.6c0,0.5,0,1,0,1.4c-0.1,0.8-0.2,1.4-0.2,1.4c-0.1,0.5-0.2,1-0.4,1.5
					c-0.1,0.2-0.2,0.5-0.3,0.7l-0.1,0.2l0,0.1l-0.2,0.4c-0.1,0.3-0.2,0.5-0.4,0.8c-0.5,1-1.1,2-1.7,2.9c-1.3,1.9-2.9,3.5-4.8,4.8
					c-1.9,1.3-4,2.3-6.2,2.9c-2.2,0.6-4.5,0.9-6.8,0.8c-2.3-0.1-4.6-0.6-6.7-1.4c-2.2-0.8-4.3-1.9-6.1-3.5c-0.9-0.8-1.7-1.8-2.3-2.9
					c-0.6-1.1-1-2.3-1.2-3.6c-0.2-1.2-0.2-2.4-0.2-3.5c0-1.1,0-2.2-0.3-2.7c-0.1-0.3-0.2-0.3-0.4-0.5c-0.2-0.1-0.5-0.2-0.9-0.1
					c-0.3,0-0.7,0.1-0.9,0.3c-0.2,0.1-0.3,0.3-0.5,0.6c-0.3,0.6-0.3,1.7-0.4,2.8c-0.1,1.1-0.2,2.3-0.4,3.5c-0.4,2.4-1.5,4.7-3,6.6
					c-1.5,1.9-3.3,3.5-5.2,4.8c-2,1.3-4,2.4-6.3,3.1c-1.1,0.4-2.4,0.6-3.3,0.8c-1,0.2-1.6,0.5-2.4,1.1c-1.4,1.1-2.3,2.7-2.9,4.8
					c-0.3,1-0.6,2.1-1,3.2c-0.2,0.5-0.4,1.1-0.6,1.6l-0.6,1.5c-0.7,2-1.4,4.1-2,6.2c-2.3,8.4-3.4,17-3.5,25.8c0,1.1-0.1,2.2-0.1,3.3
					c-0.1,1.1-0.2,2.3-0.5,3.5c-0.1,0.3-0.2,0.6-0.3,0.9l-0.2,0.5c-0.1,0.2-0.2,0.3-0.3,0.5c-0.1,0.2-0.2,0.3-0.3,0.5l-0.4,0.4
					c-0.3,0.3-0.6,0.5-0.9,0.7c-1.3,0.7-2.8,0.7-4,0.4c-1.3-0.3-2.4-0.8-3.4-1.5c-1-0.7-1.9-1.7-2.5-2.9c-0.6-1.2-0.6-2.5-0.6-3.6
					c0-1.2,0.1-2.3,0.1-3.3c0.2-4.4,0-8.7-0.8-13c-0.4-2.1-1-4.4-0.9-6.6c0.1-2.3,0.5-4.5,1.1-6.6C40.5,183.6,41.2,182,42,180.4z"/>
			</g>
		</g>
	</g>
	<g>
		<g>
			<g>
				<path class="st3" d="M151.9,133.2c0-0.1,0-0.1,0-0.2c0-0.3-0.1-0.8-0.2-0.9c0-0.1,0,0,0.4,0.7c0,0,0.1,0.2,0.1,0.2
					c0.2,0.4,0.4,0.8,0.6,1.2c0.2,0.4,0.3,0.8,0.4,1.3c0.1,0.4,0.2,0.9,0.3,1.3c0.1,0.4,0.1,0.9,0.2,1.4c0.1,0.9,0,1.9-0.1,2.8
					c-0.1,0.5-0.1,1-0.3,1.4c-0.1,0.5-0.3,0.9-0.4,1.4c-0.3,0.9-0.8,1.8-1.3,2.6c-0.3,0.4-0.6,0.8-0.9,1.2c-0.3,0.4-0.6,0.7-1,1.1
					c-0.7,0.7-1.5,1.3-2.3,1.8c-0.4,0.2-0.8,0.5-1.3,0.7c-0.5,0.2-0.9,0.4-1.4,0.6l-1.4,0.4l-1.4,0.3c-0.5,0.1-1,0.1-1.5,0.1
					c-0.5,0-1,0-1.5,0c-0.5,0-1-0.1-1.5-0.1c-0.3,0-0.5-0.1-0.8-0.1l-0.8-0.1c0,0-0.3-0.1-0.8-0.3c-0.5-0.1-1.2-0.4-2-0.7
					c-0.8-0.4-1.6-0.8-2.4-1.3c-0.8-0.5-1.6-1-2.3-1.5c-1.2-0.8-1.9-1.4-2.3-1.8c-0.4-0.3-0.5-0.4-0.4-0.3c0.2,0.2,1.5,1,3.1,1.6
					c-0.1-0.1,0.3,0.2,1.1,0.4c0.7,0.3,1.7,0.6,2.7,0.8c1,0.2,2,0.4,2.8,0.4c0.8,0.1,1.3,0.1,1.3,0.1c0.4,0,0.8,0.1,1.1,0.1
					c0.4,0,0.8,0,1.1,0c0.4,0,0.8-0.1,1.2-0.1l1.2-0.2l1.2-0.3l1.1-0.4l1.1-0.5c0.4-0.2,0.7-0.4,1-0.6c0.7-0.4,1.3-0.9,1.9-1.4
					l0.8-0.8c0.2-0.3,0.5-0.6,0.8-0.9c0.5-0.6,0.9-1.3,1.3-2c0.2-0.4,0.4-0.7,0.5-1.1c0.2-0.4,0.3-0.8,0.4-1.2
					c0.3-0.8,0.4-1.6,0.5-2.4c0.1-0.4,0.1-0.8,0.1-1.2c0-0.4,0-0.8,0-1.2c0-0.4,0-0.8-0.1-1.3C152,134.1,151.9,133.7,151.9,133.2z"
					/>
			</g>
		</g>
	</g>
	<g>
		<g>
			<g>
				<path class="st3" d="M40.3,182c0,0,0.1,0,0.2,0.1c0.6,0.3,1.6,0.3,0,0.2c0,0-0.2,0-0.2-0.1c-0.9-0.2-1.7-0.6-2.4-1.1
					c-0.7-0.5-1.4-1-2.1-1.6l-0.9-0.7c-0.1,0-0.3-0.2-0.3-0.4l-0.1-0.2l-0.3-0.5c-0.4-0.7-0.7-1.4-0.9-2.3c-0.2-0.8-0.1-1.8,0.1-2.6
					c0.1-0.4,0.3-0.9,0.4-1.2c0,0,0,0,0,0l-0.1,0l-0.2-0.1c-0.3-0.2-0.7-0.4-1-0.6c-0.6-0.4-1.3-0.9-1.9-1.5
					c-1.2-1.1-2.2-2.3-3.1-3.7c-0.9-1.4-1.5-2.8-2-4.4c-0.2-0.8-0.4-1.5-0.6-2.3c-0.1-0.4-0.1-0.8-0.2-1.2l0-0.1c0,0,0,0,0,0
					c0,0,0,0,0,0l0,0c0,0,0,0,0,0l-0.3,0l-0.5,0c-0.8,0-1.6,0-2.6-0.2c-0.5-0.1-1-0.3-1.5-0.6c-0.2-0.2-0.4-0.3-0.7-0.6l-0.4-0.6
					c-0.5-0.6-0.9-1.2-1.3-1.9c-1.4-2-2.6-4-4-5.7c-0.7-0.9-1.5-1.7-2.3-2.4l-0.3-0.3c0-0.1-0.4-0.3-0.5-0.5l-0.3-0.5
					c-0.1-0.2-0.2-0.3-0.3-0.5c-0.1-0.3-0.3-0.6-0.4-1c-0.1-0.3-0.2-0.7-0.3-1c-0.3-1.4-0.3-2.8,0-4.1c0.1-0.3,0.2-0.6,0.2-1
					l0.3-0.9l0.4-0.9l0.3-0.6c0.2-0.4,0.5-0.8,0.8-1.2c0.3-0.4,0.6-0.8,0.9-1.1c0,0,0.1-0.1,0.2-0.2c0.1-0.1,0.3-0.2,0.5-0.4
					c0.2-0.2,0.4-0.4,0.7-0.6c0.1-0.1,0.3-0.2,0.5-0.3c0.1,0,0.2-0.2,0.4-0.2c0.2-0.1,0.2-0.1,0.3-0.1c0.7-0.2,1.6-0.5,2.5-0.8
					c0.9-0.3,1.8-0.6,2.7-0.6c1.5-0.1,2.3,0.4,2.8,0.5c0.5,0.2,0.6,0.3,0.5,0.2c-0.2-0.1-1.7-0.8-3.3-0.4c0.1,0-0.4,0.1-1.1,0.3
					c-0.7,0.3-1.6,0.8-2.5,1.3c-0.2,0.1-0.5,0.3-0.7,0.4l-0.4,0.2l-0.2,0.1c0,0,0,0,0,0c-0.3,0.3-0.7,0.6-0.9,0.9
					c-0.3,0.3-0.4,0.5-0.6,0.7c-0.1,0.2-0.2,0.3-0.2,0.3c-0.2,0.3-0.5,0.7-0.6,1l-0.3,0.5l-0.3,0.7c-0.4,1-0.6,2-0.7,3
					c-0.1,1,0.1,2,0.4,2.9c0.1,0.2,0.2,0.4,0.3,0.6c0.1,0.2,0.2,0.4,0.4,0.6c0.1,0.1,0.1,0.2,0.1,0.2c0,0-0.1-0.1,0.1,0.1
					c0.2,0.2,0.5,0.4,0.7,0.6c1,0.8,1.8,1.6,2.6,2.5c1.6,1.8,2.9,3.8,4.2,5.6l1.3,1.8c0.3,0.4,0.2,0.3,0.4,0.4
					c0.2,0.1,0.3,0.2,0.6,0.2c0.5,0.1,1.1,0.2,1.8,0.2l0.6,0l0.3,0l0.2,0l0.3,0c0.7,0.1,1.4,0.3,1.9,0.9c0.1,0.1,0.2,0.3,0.3,0.4
					c0.1,0.2,0.1,0.3,0.2,0.5c0.1,0.2,0.1,0.3,0.1,0.5c0,0.1,0,0.2,0,0.3l0,0.1c0.1,0.3,0.1,0.7,0.2,1c0.1,0.7,0.3,1.4,0.5,2
					c0.4,1.3,0.9,2.6,1.5,3.8c0.7,1.2,1.5,2.3,2.4,3.3c0.5,0.5,1,1,1.5,1.4c0.3,0.2,0.6,0.4,0.8,0.6c0.1,0.1,0.5,0.3,0.7,0.5
					l0.8,0.6c0.1,0,0.1,0.1,0.2,0.1l-0.1,0.2l-0.2,0.5c-0.1,0.2-0.1,0.3-0.2,0.5c-0.1,0.2-0.2,0.3-0.3,0.5c-0.2,0.3-0.3,0.6-0.4,0.9
					c-0.2,0.6-0.3,1.2-0.3,1.8c0,0.6,0.2,1.3,0.5,1.9l0.2,0.5l0.1,0.3c0,0.1,0,0,0,0.1l0.7,0.8c0.6,0.6,1.1,1.3,1.8,1.8
					C38.9,181.1,39.6,181.6,40.3,182z"/>
			</g>
		</g>
	</g>
	<g>
		<g>
			<g>
				<path class="st3" d="M11.6,132.6c0.1,0,0.1,0.1,0.2,0.1c0.3,0.2,0.7,0.4,0.8,0.4c0.1,0,0-0.1-0.9-0.1c0,0-0.2,0-0.3,0
					c-0.4-0.1-0.9-0.1-1.3-0.3l-0.7-0.2c-0.2-0.1-0.4-0.2-0.6-0.3c-0.2-0.1-0.4-0.2-0.6-0.3l-0.6-0.4c-0.2-0.1-0.4-0.3-0.6-0.4
					c-0.2-0.2-0.4-0.3-0.5-0.5c-0.4-0.4-0.7-0.8-1-1.2C5.2,129,5,128.5,4.7,128c-0.2-0.5-0.4-1-0.5-1.5c-0.1-0.5-0.1-1.1-0.2-1.6
					c0-0.5,0-1.1,0.2-1.6c0.1-0.5,0.3-1,0.4-1.6c0.2-0.5,0.5-1,0.7-1.4c0.3-0.4,0.6-0.9,0.9-1.3c0.2-0.2,0.4-0.4,0.5-0.6l0.6-0.6
					c0.2-0.2,0.4-0.3,0.7-0.5c0.2-0.2,0.4-0.3,0.7-0.5c0,0,0.3-0.2,0.8-0.4c0.3-0.1,0.6-0.2,0.9-0.4c0.4-0.1,0.8-0.2,1.2-0.3
					c0.9-0.2,1.9-0.2,2.8-0.2c1,0.1,1.9,0.2,2.8,0.4c1.4,0.4,2.3,0.7,2.7,0.9c0.5,0.2,0.6,0.2,0.5,0.2c-0.3-0.1-1.7-0.5-3.4-0.4
					c0.2,0-1.9,0-3.8,0.7c-0.9,0.4-1.8,0.8-2.3,1.2c-0.6,0.4-0.9,0.7-0.9,0.7c-0.3,0.2-0.5,0.4-0.8,0.7c-0.1,0.1-0.2,0.2-0.4,0.4
					l-0.3,0.4c-0.3,0.3-0.4,0.6-0.6,0.9c-0.2,0.3-0.4,0.7-0.5,1c-0.1,0.3-0.3,0.7-0.3,1c-0.1,0.4-0.1,0.7-0.2,1.1
					c0,0.4-0.1,0.7,0,1.1c0,0.4,0.1,0.7,0.2,1.1c0.1,0.4,0.2,0.7,0.4,1.1c0.1,0.4,0.3,0.7,0.5,1c0.1,0.2,0.2,0.3,0.3,0.5
					c0.1,0.2,0.2,0.3,0.3,0.5c0.3,0.3,0.5,0.6,0.8,0.9c0.1,0.1,0.3,0.3,0.4,0.4l0.5,0.4C10.9,132.2,11.2,132.4,11.6,132.6z"/>
			</g>
		</g>
	</g>
	<g>
		<g>
			<g>
				<path class="st3" d="M32.1,95c0,0,0,0,0.1,0.2c0.2,0.3,0.5,0.6,0.6,0.7c0.1,0.1,0-0.1-0.7-0.5c0,0-0.2-0.1-0.2-0.1
					c-0.3-0.2-0.7-0.5-1.1-0.7c-0.4-0.2-0.7-0.4-1.1-0.6c-0.4-0.2-0.7-0.4-1.1-0.5l-1.2-0.4c-1.2-0.3-2.3-0.6-3.5-0.7
					c-1.2-0.2-2.3-0.1-3.5-0.1c-1.2,0.1-2.3,0.3-3.4,0.6l-0.8,0.2l-0.8,0.3c-0.5,0.2-1.1,0.5-1.6,0.7c-0.5,0.2-1,0.6-1.5,0.8
					c-0.5,0.3-1,0.6-1.4,1c-0.9,0.7-1.7,1.5-2.4,2.3L8,99c-0.2,0.2-0.3,0.5-0.4,0.7c-0.3,0.5-0.5,1-0.7,1.5
					c-0.3,0.5-0.3,1.1-0.5,1.6c-0.1,0.5-0.2,1.1-0.3,1.7l0,0.6c0,0.2,0,0.4,0,0.7l0.1,1.3c0,0,0,0.3,0.1,0.7c0,0.2,0,0.5,0.1,0.8
					c0.1,0.3,0.1,0.7,0.2,1c0.1,0.4,0.2,0.8,0.3,1.2c0.1,0.2,0.1,0.4,0.2,0.6c0.1,0.2,0.2,0.4,0.3,0.6c0.3,0.8,0.8,1.6,1.3,2.3
					c0.4,0.5,0.8,1,1.1,1.3c0.3,0.3,0.6,0.5,0.8,0.8c0.4,0.4,0.5,0.4,0.4,0.3c-0.2-0.2-1.4-1-2.7-2.2c0.1,0.1-0.3-0.3-0.8-0.9
					c-0.3-0.3-0.6-0.7-0.9-1.1c-0.2-0.2-0.3-0.4-0.5-0.6c-0.1-0.2-0.3-0.5-0.4-0.7c-0.1-0.2-0.3-0.5-0.4-0.7
					c-0.1-0.3-0.2-0.5-0.3-0.7c-0.1-0.2-0.2-0.5-0.3-0.7c-0.1-0.2-0.2-0.5-0.2-0.7c-0.1-0.4-0.3-0.8-0.3-1c-0.1-0.3-0.1-0.4-0.1-0.4
					l-0.1-0.7c0-0.2-0.1-0.4-0.1-0.7l-0.1-1.4c0-0.7,0.1-1.4,0.2-2.1c0.2-0.7,0.2-1.4,0.5-2c0.2-0.7,0.5-1.3,0.8-1.9
					c0.2-0.3,0.3-0.6,0.5-0.9L6,96.5c0.8-1.1,1.8-2.1,2.9-3c0.5-0.4,1.1-0.8,1.7-1.2c0.6-0.3,1.2-0.7,1.8-0.9
					c0.6-0.3,1.2-0.6,1.9-0.7l1-0.3l1-0.2c1.3-0.3,2.7-0.4,4-0.4c1.3,0.1,2.7,0.2,4,0.5c1.3,0.3,2.5,0.8,3.7,1.4l1.2,0.7
					c0.4,0.2,0.7,0.5,1.1,0.8c0.4,0.3,0.7,0.6,1,0.9l0.5,0.5C31.8,94.7,32,94.9,32.1,95z"/>
			</g>
		</g>
	</g>
	<g>
		<g>
			<g>
				<path class="st3" d="M21,90.1c0,0.1,0,0.1,0.1,0.2c0.1,0.3,0.2,0.7,0.3,0.8c0,0.1,0,0-0.4-0.8c0,0-0.1-0.2-0.1-0.2
					c-0.2-0.4-0.3-0.8-0.5-1.2c-0.2-0.4-0.3-0.8-0.4-1.2c-0.1-0.4-0.3-0.8-0.3-1.3c-0.1-0.4-0.2-0.9-0.3-1.3
					c-0.6-3.6-0.1-7.4,1.4-10.9c0.8-1.7,1.8-3.3,3-4.8c1.2-1.5,2.7-2.7,4.4-3.7c1.7-1,3.6-1.6,5.5-1.9c1.4-0.2,2.7-1,3.8-2.1
					c1.1-1.1,1.9-2.4,2.5-3.9c0.7-1.6,1.2-3.3,2.1-5.1c0.5-0.9,1-1.8,1.7-2.5c0.7-0.8,1.5-1.4,2.3-2c0.8-0.5,1.7-1,2.5-1.4
					c0.8-0.4,1.9-0.8,2.9-1c2-0.4,3.9-0.2,5.5-0.3c0.8-0.1,1.6-0.2,2.3-0.4c0.7-0.2,1.2-0.5,1.5-1c0.7-1,1-3.1,2.2-4.8
					c1.1-1.6,2.6-3,4.3-3.8l0.8-0.3c0.1,0,0.3-0.1,0.4-0.2l0.8-0.2c0.5-0.2,1.1-0.2,1.6-0.3c0,0,0.1,0,0.2,0c0.1,0,0.4,0,0.6,0
					c0.3,0,0.6,0,0.9,0.1c0.4,0.1,0.8,0.1,1.1,0.3c0.4,0.1,0.8,0.2,1.2,0.5c0.4,0.2,0.8,0.4,1.2,0.7c0.2,0.1,0.4,0.3,0.6,0.4
					l0.5,0.5c0.4,0.3,0.6,0.6,0.9,0.9c0.9,1.1,1.3,1.9,1.6,2.4c0.3,0.5,0.3,0.6,0.2,0.5c-0.1-0.2-0.3-0.5-0.6-1
					c-0.1-0.3-0.4-0.5-0.6-0.8c-0.1-0.1-0.3-0.3-0.4-0.4c-0.2-0.1-0.3-0.3-0.5-0.4c0,0,0,0-0.2-0.2c-0.1-0.1-0.4-0.3-0.7-0.5
					c-0.3-0.2-0.7-0.5-1.1-0.7c-0.2-0.1-0.4-0.2-0.7-0.3c-0.2-0.1-0.5-0.2-0.7-0.2c-0.5-0.2-1-0.2-1.5-0.3c-0.5,0-0.9-0.1-1.3,0
					c-0.4,0.1-0.7,0.1-0.9,0.1c-0.2,0.1-0.3,0.1-0.3,0.1l-0.7,0.2l-0.6,0.2c-0.2,0.1-0.4,0.2-0.6,0.3l-0.6,0.3
					c-0.3,0.2-0.7,0.5-1,0.7c-0.3,0.2-0.6,0.5-0.9,0.8c-0.3,0.3-0.5,0.6-0.8,0.9c-0.5,0.7-0.9,1.3-1.2,2c-0.3,0.7-0.5,1.5-0.7,2.4
					c-0.1,0.5-0.3,0.9-0.6,1.4c-0.3,0.5-0.7,1-1.1,1.4c-0.9,0.8-2,1.1-2.9,1.4c-1,0.2-1.9,0.3-2.8,0.4c-1.8,0.1-3.5,0.1-4.9,0.6
					c-0.4,0.1-0.7,0.2-1,0.4c-0.4,0.2-0.7,0.4-1.1,0.6c-0.7,0.4-1.4,0.8-2,1.3c-1.2,0.9-2,2.1-2.7,3.6c-0.7,1.5-1.2,3.2-2,4.8
					c-0.8,1.8-2,3.4-3.5,4.7c-0.8,0.6-1.6,1.2-2.5,1.6c-0.5,0.2-1,0.4-1.5,0.5c-0.3,0.1-0.5,0.1-0.8,0.2l-0.7,0.1
					c-1.6,0.2-3.1,0.7-4.5,1.5c-2.8,1.5-5.1,4.1-6.7,7.1c-1.6,2.9-2.4,6.3-2.2,9.8c0,0.4,0,0.8,0.1,1.3c0,0.4,0.1,0.8,0.2,1.3
					c0.1,0.4,0.1,0.8,0.3,1.3C20.8,89.3,20.8,89.7,21,90.1z"/>
			</g>
		</g>
	</g>
	<g>
		<g>
			<g>
				<path class="st3" d="M76.2,34.9c0,0,0,0-0.1,0.2c-0.1,0.3-0.2,0.7-0.3,0.9c0,0.1,0,0,0-0.9c0,0,0-0.2,0-0.3c0-0.2,0-0.4,0-0.7
					l0.1-0.7c0.1-0.4,0.1-0.9,0.2-1.3l0.1-0.7c0.1-0.2,0.1-0.4,0.2-0.7l0.4-1.3c0.2-0.6,0.5-1.1,0.7-1.7c0.3-0.5,0.6-1.1,0.9-1.6
					c0.7-1,1.4-2,2.3-2.9c0.9-0.9,1.8-1.6,2.8-2.4c1-0.7,2.1-1.3,3.3-1.8c0.6-0.2,1.1-0.5,1.7-0.7c0.6-0.2,1.2-0.4,1.8-0.5
					c1.2-0.3,2.4-0.4,3.7-0.5c1.2,0,2.5,0,3.7,0.2c0.6,0.1,1.2,0.2,1.8,0.3c0.6,0.1,1.2,0.3,1.8,0.5c0.5,0.1,1,0.4,1.4,0.6
					c0.5,0.2,0.9,0.4,1.4,0.7c0,0,0.1,0,0.2,0.1c0.1,0.1,0.3,0.2,0.5,0.3c0.4,0.3,1,0.7,1.7,1.3c0.3,0.3,0.7,0.6,1,0.9
					c0.3,0.3,0.7,0.7,1,1c0.3,0.4,0.6,0.7,0.9,1.1c0.3,0.4,0.5,0.7,0.8,1.1c0.4,0.6,0.6,1.1,0.9,1.5c0.2,0.4,0.4,0.7,0.5,1
					c0.3,0.5,0.3,0.6,0.2,0.5c-0.2-0.2-0.9-1.5-2.1-2.7c0.1,0.1-1.3-1.4-3.1-2.4c-0.9-0.5-1.8-1-2.5-1.3c-0.3-0.2-0.7-0.2-0.9-0.3
					c-0.2-0.1-0.3-0.1-0.3-0.1c-0.4-0.1-0.7-0.3-1.1-0.4c-0.4-0.1-0.7-0.2-1.1-0.3c-0.5-0.1-1-0.2-1.6-0.3c-0.5-0.1-1.1-0.1-1.6-0.2
					c-1.1-0.1-2.1-0.1-3.2,0c-1.1,0.1-2.1,0.2-3.2,0.5c-0.5,0.1-1,0.2-1.5,0.4c-0.5,0.1-1,0.3-1.5,0.5c-0.5,0.2-1,0.4-1.5,0.6
					c-0.5,0.2-1,0.5-1.4,0.7c-0.9,0.6-1.8,1.1-2.6,1.8c-0.8,0.7-1.6,1.4-2.3,2.2c-0.4,0.4-0.7,0.8-1,1.3c-0.3,0.5-0.6,0.9-0.9,1.4
					l-0.6,1.1c-0.2,0.4-0.4,0.8-0.5,1.1c-0.2,0.4-0.3,0.8-0.5,1.2C76.5,34.1,76.3,34.5,76.2,34.9z"/>
			</g>
		</g>
	</g>
	<g>
		<g>
			<g>
				<path class="st3" d="M148.3,130.9c-0.1,0-0.1,0-0.2-0.1c-0.6-0.4-1.5-0.8,0-0.1C148.2,130.7,148.3,130.8,148.3,130.9
					c1.6,0.6,3.2,1.2,4.9,1.4c1.6,0.2,3.2,0.1,4.7-0.3c1.5-0.4,3-1,4.5-1.6c0.8-0.3,1.5-0.7,2.7-0.6c0.6,0,1.2,0.3,1.6,0.9
					c0.2,0.3,0.3,0.6,0.3,0.9c0,0.3,0,0.5,0,0.7c0,0.8,0.1,1.5,0.3,2.1c0.2,0.7,0.6,1.3,1.1,1.8c0.9,1.1,2.2,1.9,3.6,2.5
					c1.3,0.5,2.7,0.6,4.2,0.3c0.7-0.2,1.5-0.4,2.3-0.6c0.8-0.2,1.9-0.4,3,0c0.3,0.1,0.5,0.2,0.8,0.4c0.2,0.1,0.5,0.3,0.7,0.5
					c0.4,0.4,0.8,0.9,1,1.4c0.5,1,0.5,1.9,0.7,2.5c0.2,0.6,0.4,1.1,0.9,1.5c0.4,0.4,1,0.7,1.6,0.9c1.2,0.4,2.7,0.4,4,0.1
					c0.7-0.2,1.3-0.4,1.9-0.7c0.3-0.2,0.6-0.4,0.8-0.6c0.2-0.2,0.5-0.4,0.7-0.7c0.3-0.3,0.6-0.6,0.9-1c0.6-0.9,1.2-1.4,1.6-1.5
					c0.4-0.2,0.6,0,0.8,0l0.5,0.1c0.2,0.1,0.4,0.3,0.5,0.4c0.3,0.2,0.4,0.5,0.6,0.9c0.2,0.9-0.1,2.6-0.5,4.1l-0.6,2.7
					c-0.3,1.6-0.6,3.1-0.9,4.7c-0.5,3.1-0.7,6.3-0.4,9.3c0.1,0.8,0.2,1.6,0.4,2.4c0.2,0.8,0.4,1.5,0.8,2.3c0.3,0.8,0.6,1.5,1,2
					c0.4,0.6,0.8,0.9,1.1,0.9c0.3,0.1,0.7,0,1.3-0.4c0.5-0.4,1-0.9,1.5-1.5c0.4-0.6,0.8-1.2,1.1-1.9c0.2-0.7,0.4-1.3,0.4-2.1
					c0-1.5-0.3-3.3-0.2-5.2c0.1-1.9,0.5-3.8,1.1-5.4c0.3-0.9,0.6-1.9,1.5-2.8c0.4-0.5,1-0.8,1.6-1c0.6-0.2,1.3-0.3,1.9-0.2
					c1.2,0.2,2,0.6,2.8,1l2.3,1.2c1.5,0.8,3,1.4,4.7,2.1c1.6,0.6,3.2,1.2,4.8,1.6c1.6,0.4,3.3,0.5,4.9,0.4c1.6-0.2,3.3-0.5,4.8-1.1
					c0.7-0.3,1.7-0.9,1.6-0.8l0.3-0.2c0.2-0.1,0.4-0.3,0.6-0.4c0.4-0.3,0.7-0.7,1.1-1c0,0,0.2-0.2,0.5-0.6c0.3-0.4,0.6-0.9,0.9-1.7
					c0.3-0.7,0.5-1.6,0.6-2.5c0.1-0.9,0-1.8-0.1-2.6c-0.2-1.4-0.6-2.2-0.8-2.7c-0.2-0.5-0.3-0.6-0.2-0.5c0.1,0.3,0.8,1.5,1.2,3.3
					c0-0.1,0.1,0.4,0.2,1.1c0.1,0.8,0.1,1.9-0.1,2.9c-0.2,1.1-0.6,2.1-1,2.9c-0.4,0.7-0.8,1.2-0.8,1.2c-0.3,0.4-0.7,0.8-1.1,1.1
					c-0.2,0.2-0.4,0.3-0.6,0.5l-0.2,0.1c-0.3,0.2-0.7,0.5-1.1,0.7c-0.8,0.4-1.6,0.8-2.4,1c-0.8,0.3-1.7,0.5-2.5,0.6
					c-0.9,0.2-1.8,0.3-2.6,0.3c-1.8,0-3.5-0.2-5.2-0.7c-1.7-0.4-3.3-1-4.9-1.6c-1.6-0.6-3.2-1.3-4.7-2c-0.8-0.4-1.5-0.7-2.2-1
					c-0.4-0.1-0.7-0.2-1-0.3c-0.3,0-0.5,0-0.7,0.1c-0.4,0.2-0.7,0.4-1,1c-0.3,0.6-0.5,1.4-0.7,2.2c-0.4,1.6-0.6,3-0.6,4.6
					c0,1.5,0.4,3.2,0.3,5.2c-0.1,1-0.3,2-0.8,2.9c-0.4,0.9-0.9,1.7-1.5,2.5c-0.6,0.7-1.3,1.5-2.3,2c-0.5,0.3-1,0.5-1.7,0.6
					c-0.6,0.1-1.4,0.1-2-0.2c-1.3-0.5-2-1.4-2.6-2.3c-0.5-0.8-0.9-1.7-1.2-2.5c-0.3-0.8-0.6-1.7-0.8-2.6c-0.2-0.9-0.4-1.8-0.5-2.7
					c-0.3-3.4-0.1-6.8,0.4-10.1c0.3-1.6,0.6-3.3,0.9-4.9l0.5-2.1l0,0l-0.2,0.1c-0.4,0.3-0.8,0.6-1.2,0.8c-0.8,0.5-1.8,0.8-2.7,1
					c-1.8,0.4-3.7,0.3-5.6-0.3c-0.9-0.3-1.8-0.9-2.5-1.6c-0.8-0.7-1.3-1.8-1.5-2.7c-0.2-0.9-0.3-1.7-0.5-2.2c-0.2-0.4-0.6-0.8-1-0.9
					c-0.8-0.4-2.5,0.2-4.2,0.5c-1.7,0.3-3.7,0.2-5.4-0.6c-1.6-0.8-3.1-1.8-4.2-3.2c-0.6-0.7-1-1.5-1.3-2.4c-0.3-0.9-0.3-1.9-0.3-2.7
					c0-0.4,0-0.7-0.1-0.8c-0.1-0.1-0.2-0.2-0.5-0.3c-0.5-0.1-1.3,0.2-2.1,0.4c-1.5,0.5-3.1,1.1-4.7,1.4c-1.7,0.3-3.4,0.3-5-0.1
					C151.4,132.5,149.8,131.8,148.3,130.9z"/>
			</g>
		</g>
	</g>
	<g>
		<g>
			<g>
				<path class="st3" d="M240.9,149.7c0,0,0-0.1-0.1-0.2c-0.2-0.3-0.5-0.6-0.5-0.7c-0.1-0.1,0,0,0.6,0.6c0,0,0.1,0.1,0.2,0.2
					c1.3,1.2,2.6,2.3,4,3.1c0.5,0.3,1.1,0.6,1.7,0.7c0.3,0.1,0.6,0.1,0.9,0.2c0.3,0,0.6,0.1,0.9,0c0.3,0,0.6,0,0.9-0.1
					c0.1,0,0.3-0.1,0.4-0.1l0.2-0.1c0,0,0,0,0.1-0.1c0.1,0.1,0.1,0,0.1,0c0.1,0,0.1,0,0.1,0c0.1,0,0.1,0,0.2-0.2l0.5-0.8l0.1-0.1
					c0.1-0.2,0.3-0.4,0.5-0.6c0.1-0.1,0.1-0.2,0.2-0.2l0.2-0.1l0.3-0.2c0.4-0.3,0.8-0.5,1.2-0.7c0.9-0.4,1.7-0.7,2.6-0.9
					c1.8-0.5,3.5-0.8,5.1-1.1c0.4-0.1,0.8-0.2,1.2-0.3c0.1,0,0.3-0.1,0.2-0.1c0,0,0,0,0,0l0.4-0.3c0.6-0.5,1.2-1,1.8-1.6
					c1.1-1.1,2-2.5,2.3-3.8c0.1-0.6,0.1-1.3-0.1-1.8c0-0.1-0.1-0.3-0.2-0.4c0,0,0,0,0,0c-0.3-0.2-0.6-0.5-0.9-0.7
					c-0.4-0.3-0.6-0.4-1.4-1.1c-0.6-0.6-1-1.3-1-2.1c0-0.1,0-0.2,0.1-0.3l0.1-0.2l0.3-0.5c0.2-0.3,0.6-0.6,0.9-0.9
					c0.4-0.4,0.6-0.6,0.9-0.9c1.2-1.2,2.2-2.5,3.2-3.8c0.9-1.4,1.8-2.7,2.5-4.2c0.7-1.5,1.2-3,1.4-4.6c0.2-0.8,0.2-1.6,0.2-2.4
					c0-0.8,0-1.6-0.2-2.4c-0.4-3.2-1.9-6.2-3.9-8.8c-1-1.3-2.2-2.5-3.5-3.6c-0.3-0.3-0.7-0.5-1-0.8c-0.3-0.3-0.7-0.5-1-0.7
					c-0.4-0.2-0.7-0.5-1.1-0.7l-0.9-0.5c-0.4-0.2-0.8-0.4-1.2-0.6c-0.4-0.2-0.8-0.4-1.2-0.5c0,0-0.3-0.1-0.7-0.3
					c-0.4-0.2-1.1-0.4-1.8-0.6c-0.8-0.2-1.6-0.4-2.5-0.5c-0.9-0.1-1.8-0.1-2.6-0.1c-0.7,0.1-1.3,0.1-1.7,0.2
					c-0.4,0.1-0.8,0.2-1.1,0.3c-0.5,0.1-0.6,0.2-0.5,0.1c0.3-0.1,1.6-0.6,3.4-0.9c-0.1,0,0.4,0,1.2-0.1c0.4-0.1,0.8-0.1,1.3-0.1
					c0.5,0,1,0,1.6,0c1.1,0,2.2,0.2,3,0.4c0.8,0.2,1.4,0.3,1.4,0.3l1.3,0.5c0.2,0.1,0.4,0.2,0.7,0.3l1.3,0.6c3.2,1.6,6,3.8,8.3,6.6
					c2.3,2.8,3.9,6.3,4.3,10c0.2,1.9,0.1,3.7-0.3,5.5c-0.4,1.8-1,3.6-1.8,5.2c-1.6,3.3-3.9,6.1-6.4,8.6l-0.5,0.4c-0.1,0.1,0,0,0,0
					l0,0l1,0.8l0.6,0.4c0.1,0.1,0.2,0.2,0.4,0.3c0.1,0.2,0.3,0.3,0.4,0.5l0.4,0.9c0.1,0.3,0.1,0.5,0.2,0.8c0.2,1.1,0.1,2.2-0.2,3.2
					c-0.7,2-1.9,3.5-3.3,4.7c-0.7,0.6-1.4,1.2-2.2,1.7l-0.3,0.2c-0.1,0.1-0.3,0.3-0.5,0.3c-0.1,0-0.2,0-0.3,0.1l-0.2,0l-0.3,0.1
					l-1.3,0.2c-1.7,0.3-3.4,0.5-5,0.8c-0.8,0.2-1.6,0.4-2.3,0.6c-0.4,0.1-0.7,0.3-1.1,0.5c-0.1,0.1-0.4,0.2-0.3,0.2
					c-0.1,0.1-0.2,0.2-0.4,0.4l-0.1,0.1c-0.2,0.2-0.3,0.5-0.6,0.8c-0.1,0.2-0.3,0.4-0.6,0.5c-0.2,0.2-0.6,0.2-0.8,0.2
					c0,0-0.2,0-0.1,0c0,0,0,0,0,0c0,0,0,0,0,0l-0.3,0c-0.2,0-0.3,0.1-0.5,0.1c-0.4,0-0.7,0-1.1,0c-0.4,0-0.7-0.1-1-0.2
					c-0.3-0.1-0.7-0.2-1-0.3c-0.6-0.3-1.2-0.6-1.8-1C243.2,152.4,242,151.1,240.9,149.7z"/>
			</g>
		</g>
	</g>
	<g>
		<g>
			<g>
				<path class="st3" d="M253.6,97.9C253.6,97.9,253.6,97.9,253.6,97.9c-0.1,0.3-0.2,0.5-0.2,0.5c0,0.1,0.1,0-0.2-0.4
					c0,0-0.1-0.1-0.1-0.1c0,0-0.1-0.2-0.2-0.6c-0.2-0.3-0.4-0.8-0.7-1.3c-0.2-0.2-0.4-0.5-0.5-0.7c-0.2-0.2-0.5-0.5-0.7-0.7
					c-0.3-0.2-0.5-0.4-0.8-0.6c-0.3-0.2-0.6-0.4-0.9-0.6c-0.6-0.3-1.3-0.6-1.9-0.9c-0.6-0.3-1.3-0.4-1.8-0.6c-0.6-0.1-1-0.3-1.4-0.3
					c-0.3-0.1-0.5-0.1-0.5-0.1s-0.5-0.2-1.2-0.4c-0.7-0.2-1.6-0.4-2.4-0.5c-1.3-0.1-1.7,0.1-1.6,0c0.1,0,0.7-0.3,1.5-0.6
					c0,0,0.2-0.1,0.5-0.2c0.4-0.1,0.8-0.3,1.4-0.4c0.5-0.1,1-0.2,1.4-0.3c0.4-0.1,0.7-0.1,0.7-0.1s0.2,0,0.6,0c0.4,0,1,0.1,1.6,0.2
					c0.3,0.1,0.7,0.1,1.1,0.2c0.4,0.1,0.8,0.2,1.2,0.4c0.4,0.2,0.8,0.4,1.2,0.6c0.4,0.2,0.8,0.5,1.2,0.8c0.4,0.3,0.7,0.7,1.1,1
					c0.3,0.4,0.6,0.8,0.8,1.2c0.2,0.4,0.4,0.8,0.6,1.2c0.1,0.4,0.2,0.8,0.3,1.2c0.1,0.4,0,0.7,0,1c0,0.3,0,0.5-0.1,0.7
					C253.7,97.6,253.6,97.8,253.6,97.9z"/>
			</g>
		</g>
	</g>
	<g>
		<g>
			<g>
				<path class="st3" d="M218.8,51.6c-0.1,0-0.1,0-0.2,0c-0.4,0-0.8,0.1-0.9,0.2c-0.1,0,0.1,0,0.7-0.6c0,0,0.1-0.1,0.2-0.2
					c1.4-1.1,3.2-1.9,5-2.2c1.2-0.2,2.4-0.2,3.6,0c1.2,0.2,2.4,0.5,3.5,0.9c0.5,0.2,1,0.5,1.4,0.8c0.2,0.1,0.5,0.3,0.7,0.5
					c0.2,0.2,0.5,0.3,0.7,0.5c0,0,0.2,0.2,0.6,0.7c0.2,0.2,0.4,0.5,0.6,0.8c0.2,0.3,0.4,0.7,0.6,1.1c0.4,0.8,0.7,1.8,0.9,2.8
					c0.1,1,0.1,2,0,2.8c-0.2,1.5-0.5,2.3-0.6,2.8c-0.2,0.5-0.2,0.6-0.2,0.5c0.1-0.3,0.3-1.8-0.1-3.4c0,0.1-0.1-0.4-0.3-1.1
					c-0.2-0.7-0.6-1.6-1.1-2.4c-0.6-0.8-1.2-1.4-1.7-1.9c-0.5-0.4-0.9-0.7-0.9-0.7c-0.3-0.2-0.6-0.4-0.9-0.6
					c-0.1-0.1-0.3-0.2-0.5-0.3c-0.2-0.1-0.3-0.2-0.5-0.2c-0.9-0.4-1.8-0.7-2.7-0.9c-1-0.2-1.9-0.4-2.9-0.5c-0.8-0.1-1.6,0-2.4,0
					C220.5,51.3,219.7,51.4,218.8,51.6z"/>
			</g>
		</g>
	</g>
	<g>
		<g>
			<g>
				<path class="st3" d="M247.1,90.1c0,0,0,0-0.2,0.1c-0.3,0.1-0.7,0.3-0.8,0.4c-0.1,0.1,0.1,0,0.6-0.6c0,0,0.1-0.1,0.2-0.2
					c0.3-0.3,0.6-0.6,0.9-0.9c0.3-0.3,0.6-0.6,0.8-1c0.3-0.3,0.5-0.7,0.7-1c0.2-0.4,0.5-0.7,0.7-1c0.5-0.9,1-1.9,1.4-2.9
					c0.2-0.5,0.4-1,0.5-1.5l0.2-0.8l0.2-0.8c0.2-1,0.3-2.1,0.3-3.1c0-0.5-0.1-1-0.1-1.5c-0.1-0.5-0.2-1-0.3-1.5
					c-0.3-0.9-0.7-1.9-1.2-2.7c-0.3-0.4-0.5-0.8-0.9-1.2l-0.5-0.6l-0.5-0.5c-0.7-0.7-1.6-1.3-2.4-1.9c-0.9-0.5-1.8-1-2.8-1.4
					c-0.4-0.2-0.8-0.4-1.3-0.5c-0.4-0.1-0.9-0.3-1.3-0.4c0,0-0.3-0.1-0.7-0.2c-0.5-0.2-1.1-0.3-1.9-0.5c-0.4-0.1-0.8-0.1-1.2-0.2
					c-0.4-0.1-0.9-0.1-1.3-0.2c-0.9-0.1-1.8-0.1-2.6-0.1c-1.4,0.1-2.3,0.2-2.8,0.3c-0.5,0.1-0.6,0.2-0.5,0.1c0.3-0.1,1.6-0.6,3.4-1
					c-0.1,0,0.4-0.1,1.1-0.3c0.8-0.1,1.8-0.3,2.9-0.4c1.1-0.1,2.2-0.1,3.1,0c0.8,0.1,1.4,0.1,1.4,0.1l1.3,0.3
					c0.4,0.1,0.8,0.2,1.3,0.4c1.2,0.4,2.3,0.9,3.4,1.4c1.1,0.6,2.1,1.3,3,2.2l0.7,0.6l0.6,0.7c0.4,0.5,0.8,1,1.1,1.5
					c0.7,1.1,1.2,2.3,1.5,3.5c0.2,0.6,0.2,1.3,0.3,1.9c0,0.6,0.1,1.3,0,1.9c-0.1,1.3-0.3,2.5-0.6,3.7l-0.3,0.9l-0.4,0.8
					c-0.2,0.6-0.5,1.1-0.8,1.6c-0.6,1.1-1.3,2-2.1,2.9c-0.3,0.3-0.6,0.6-0.9,1c-0.3,0.3-0.7,0.6-1,0.9c-0.3,0.3-0.7,0.6-1.1,0.8
					C247.8,89.7,247.5,89.9,247.1,90.1z"/>
			</g>
		</g>
	</g>
	<g>
		<g>
			<g>
				<path class="st3" d="M223.4,49.1c0,0.1,0,0.1-0.1,0.2c-0.2,0.3-0.3,0.7-0.3,0.9c0,0.1,0.1,0-0.2-0.9c0,0-0.1-0.2-0.1-0.2
					l-0.1-0.6l-0.2-0.6l-0.2-0.6c0-0.2-0.1-0.4-0.2-0.6c-0.2-0.4-0.3-0.7-0.5-1.1c-0.2-0.3-0.4-0.7-0.6-1c-0.1-0.1-0.2-0.2-0.3-0.4
					l-0.3-0.4l-0.3-0.4c-0.1-0.1-0.2-0.2-0.3-0.3l-0.6-0.6c-0.2-0.2-0.5-0.4-0.7-0.6c-0.2-0.1-0.3-0.3-0.5-0.4l-0.5-0.3
					c-0.2-0.1-0.3-0.2-0.5-0.3l-0.6-0.3c0,0-0.2-0.2-0.6-0.3c-0.4-0.2-0.9-0.5-1.6-0.6c-0.3-0.1-0.7-0.2-1.1-0.3
					c-0.4,0-0.8-0.2-1.2-0.2c-0.4,0-0.9-0.1-1.3,0l-1.2,0.2c-0.6,0.2-1.2,0.4-1.6,0.6c-0.4,0.2-0.7,0.4-0.9,0.6
					c-0.5,0.3-0.5,0.4-0.4,0.3c0.3-0.2,1.2-1.3,2.8-2.3c-0.1,0,0.3-0.2,1.1-0.6c0.8-0.3,1.9-0.7,3.1-0.8c1.2-0.1,2.4,0,3.3,0.3
					c0.5,0.1,0.8,0.2,1.1,0.3c0.3,0.1,0.4,0.2,0.4,0.2c0.2,0.1,0.4,0.2,0.6,0.3l0.6,0.4l0.6,0.4c0.2,0.1,0.4,0.3,0.5,0.5
					c0.3,0.3,0.6,0.5,0.8,0.8l0.7,0.9c0.1,0.2,0.2,0.3,0.3,0.5l0.3,0.5L223,43c0.1,0.2,0.2,0.3,0.2,0.5c0.2,0.5,0.3,0.9,0.4,1.4
					c0,0.2,0.1,0.5,0.1,0.7c0,0.2,0,0.5,0.1,0.7c0,0.2,0,0.5,0,0.7l-0.1,0.7l-0.1,0.7L223.4,49.1z"/>
			</g>
		</g>
	</g>
	<g>
		<g>
			<g>
				<path class="st3" d="M208.5,39.5C208.5,39.5,208.5,39.5,208.5,39.5c-0.1,0.1-0.1,0.2-0.1,0.2c0,0,0,0-0.2,0c0,0-0.1,0-0.1,0
					c0,0-0.1,0-0.3,0c-0.1,0-0.4-0.1-0.6-0.1c-0.2-0.1-0.4-0.1-0.6-0.2c-0.2-0.1-0.4-0.2-0.6-0.3c-0.3-0.2-0.6-0.4-0.8-0.7
					c-0.2-0.2-0.3-0.4-0.3-0.4s0-0.2-0.1-0.4c0-0.3-0.1-0.6-0.2-0.9c-0.2-0.4-0.3-0.4-0.3-0.4c0,0,0.2,0,0.5-0.1c0,0,0.1,0,0.2-0.1
					c0.1-0.1,0.3-0.1,0.5-0.1c0.2-0.1,0.4-0.1,0.5-0.1c0.2,0,0.3,0,0.3,0s0.3,0,0.7,0.2c0.4,0.2,0.8,0.5,1.1,1
					c0.1,0.2,0.3,0.5,0.3,0.8c0.1,0.3,0.1,0.5,0.1,0.8c0,0.2-0.1,0.5-0.1,0.6C208.5,39.4,208.5,39.5,208.5,39.5z"/>
			</g>
		</g>
	</g>
	<g>
		<g>
			<g>
				<path class="st3" d="M203.9,40.6c0,0.1-0.1,0.1-0.1,0.2c-0.2,0.3-0.4,0.7-0.4,0.8c-0.1,0.1,0.1,0,0.1-0.9c0,0,0-0.2,0-0.2
					c0.1-0.9,0.1-1.7,0.1-2.5c0-0.8-0.1-1.7-0.2-2.5c-0.1-0.7-0.2-1.3-0.4-1.9c-0.2-0.6-0.3-1.2-0.6-1.9c-0.4-1.3-1-2.5-1.6-3.6
					c-0.3-0.5-0.7-1.1-1-1.6c-0.2-0.2-0.4-0.5-0.6-0.7c-0.2-0.2-0.4-0.4-0.6-0.6c-0.4-0.4-0.9-0.8-1.4-1.1c-0.5-0.3-1-0.6-1.6-0.7
					c-0.2-0.1-0.4-0.1-0.6-0.2c-0.2,0-0.4-0.1-0.6-0.1c-0.2,0-0.4-0.1-0.6-0.1l-0.6-0.1c0,0-0.3,0-0.7-0.1c-0.4,0-1.1,0-1.8,0.1
					c-0.7,0.1-1.6,0.3-2.4,0.6c-0.8,0.3-1.6,0.7-2.3,1.1c-1.2,0.8-1.8,1.4-2.1,1.8c-0.3,0.4-0.4,0.5-0.3,0.4
					c0.2-0.2,0.9-1.5,2.1-2.8c-0.1,0.1,0.3-0.3,0.9-0.8c0.6-0.5,1.5-1.2,2.5-1.7c1-0.5,2.2-0.9,3.1-1.1c0.4-0.1,0.8-0.1,1.1-0.2
					c0.3,0,0.4,0,0.4,0c0.5,0,0.9,0,1.4,0.1c0.5,0.1,0.9,0.1,1.4,0.3c0.8,0.2,1.6,0.5,2.3,0.9c0.7,0.4,1.4,0.9,1.9,1.5
					c0.3,0.3,0.6,0.6,0.8,0.9c0.3,0.3,0.5,0.6,0.7,0.9c0.5,0.6,0.8,1.3,1.2,2c0.7,1.4,1.1,2.8,1.4,4.3c0.2,0.7,0.3,1.5,0.3,2.2
					c0,0.8,0,1.5,0,2.2C205.2,37.2,204.7,39,203.9,40.6z"/>
			</g>
		</g>
	</g>
	<g>
		<g>
			<g>
				<path class="st3" d="M176.9,29.3c0,0.1,0,0.1,0,0.2c0,0.4,0,0.8,0,0.9c0,0.1,0.1,0-0.3-0.8c0,0-0.1-0.2-0.1-0.2
					c-0.6-1.6-1.4-3.1-2.3-4.5c-0.4-0.7-0.9-1.3-1.4-1.9c-0.5-0.6-1-1.2-1.6-1.7c-1.1-1.1-2.3-2-3.6-2.8c-0.6-0.4-1.3-0.7-2-1
					c-0.7-0.3-1.4-0.5-2.1-0.7c-0.7-0.2-1.4-0.3-2.2-0.3c-0.7-0.1-1.5,0-2.2,0.1c-0.2,0-0.4,0.1-0.6,0.1c-0.2,0-0.4,0.1-0.6,0.1
					c-0.4,0.1-0.9,0.2-1.3,0.3c0,0-0.3,0-0.7,0.2c-0.4,0.1-1.1,0.3-1.8,0.6c-0.7,0.3-1.5,0.7-2.2,1.1c-0.8,0.4-1.5,1-2.1,1.5
					c-1,0.9-1.6,1.7-1.9,2.1c-0.3,0.4-0.4,0.5-0.3,0.4c0.2-0.2,0.8-1.5,1.8-3c-0.1,0.2,1.1-1.6,2.8-3.1c0.9-0.7,1.8-1.4,2.6-1.8
					c0.4-0.2,0.7-0.4,0.9-0.5c0.2-0.1,0.4-0.2,0.4-0.2c0.4-0.2,0.8-0.3,1.3-0.4c0.4-0.1,0.9-0.2,1.3-0.3c0.9-0.2,1.8-0.3,2.7-0.2
					c0.9,0,1.8,0.1,2.7,0.3c0.9,0.2,1.8,0.5,2.6,0.8c0.8,0.4,1.7,0.8,2.4,1.3c1.5,1,2.8,2.2,4,3.6c0.6,0.7,1.1,1.4,1.5,2.1
					c0.5,0.7,0.9,1.5,1.2,2.3C176.4,25.8,176.8,27.5,176.9,29.3z"/>
			</g>
		</g>
	</g>
	<g>
		<g>
			<g>
				<path class="st3" d="M175.1,24.4C175.1,24.4,175.1,24.4,175.1,24.4c-0.2,0-0.3-0.1-0.3,0c0,0,0,0,0.1-0.2c0,0,0-0.1,0-0.1
					c0,0,0.1-0.1,0.2-0.3c0.2-0.2,0.4-0.5,0.7-0.8c0.2-0.1,0.3-0.3,0.5-0.4c0.2-0.1,0.4-0.2,0.7-0.4c0.5-0.2,1-0.4,1.5-0.5
					c1.1-0.2,2.2-0.1,3,0.1c0.8,0.2,1.3,0.5,1.3,0.5s0.3,0.2,0.7,0.5c0.2,0.2,0.4,0.4,0.6,0.6c0.2,0.2,0.4,0.4,0.5,0.6
					c0.6,0.6,0.8,0.6,0.7,0.6c-0.1,0-0.5-0.1-1-0.1c0,0-0.5,0-1.1,0.1c-0.3,0-0.6,0.1-0.8,0.1c-0.2,0-0.3,0.1-0.3,0.1s-0.4,0-1,0
					c-0.6,0-1.4,0-2.2-0.1c-0.4,0-0.8,0-1.2-0.1c-0.4,0-0.8,0-1.2,0c-0.4,0-0.7-0.1-0.9-0.1C175.3,24.5,175.2,24.5,175.1,24.4z"/>
			</g>
		</g>
	</g>
	<g>
		<g>
			<g>
				<path class="st3" d="M154.6,16.2C154.6,16.2,154.6,16.2,154.6,16.2c0,0.2,0,0.3,0,0.3c0,0,0,0-0.2-0.1c0,0-0.1,0-0.1,0
					c0,0-0.1-0.1-0.3-0.1c-0.2-0.1-0.5-0.2-0.8-0.3c-0.3-0.1-0.6-0.3-1-0.4c-0.2-0.1-0.4-0.1-0.5-0.2c-0.2-0.1-0.3-0.1-0.5-0.2
					c-0.7-0.3-1.3-0.5-1.8-0.8c-0.5-0.2-0.9-0.4-0.9-0.4s-0.2-0.2-0.5-0.4c-0.3-0.2-0.8-0.5-1.2-0.7c-0.7-0.2-0.9-0.1-0.8-0.2
					c0.1,0,0.4-0.2,0.8-0.4c0,0,0.1-0.1,0.3-0.2c0.2-0.1,0.5-0.2,0.7-0.3c0.3-0.1,0.6-0.2,0.8-0.3c0.2-0.1,0.4-0.1,0.4-0.1
					s0.5-0.1,1.3,0.1c0.4,0.1,0.8,0.2,1.2,0.4c0.4,0.2,0.9,0.4,1.3,0.7c0.4,0.3,0.8,0.7,1,1.1c0.1,0.2,0.3,0.4,0.4,0.6
					c0.1,0.2,0.2,0.4,0.3,0.6c0.1,0.4,0.2,0.7,0.2,0.9C154.6,16.1,154.6,16.2,154.6,16.2z"/>
			</g>
		</g>
	</g>
	<g>
		<g>
			<g>
				<path class="st3" d="M146,16c0,0.1,0,0.1-0.1,0.2c-0.2,0.3-0.3,0.7-0.4,0.8c0,0.1,0.1,0,0-0.9c0,0,0-0.2,0-0.2
					c0-0.4-0.1-0.9-0.1-1.3c0-0.4-0.1-0.8-0.2-1.2c0-0.2-0.1-0.4-0.2-0.6l-0.2-0.6l-0.2-0.5c-0.1-0.2-0.1-0.4-0.2-0.5l-0.4-0.7
					l-0.4-0.6c-0.3-0.4-0.6-0.8-1-1.1c-0.2-0.2-0.4-0.3-0.6-0.5c-0.2-0.1-0.4-0.3-0.6-0.4c-0.4-0.3-0.8-0.5-1.3-0.7
					c-0.5-0.2-0.9-0.4-1.4-0.5c-0.5-0.1-1-0.3-1.5-0.3c-0.5-0.1-1-0.1-1.5-0.1l-0.7,0l-0.7,0.1c-0.2,0-0.4,0.1-0.6,0.1
					c-0.2,0-0.4,0.1-0.6,0.1l-0.6,0.1L132.1,7c0,0-0.3,0-0.7,0.2c-0.4,0.1-1,0.4-1.6,0.7c-0.6,0.3-1.2,0.9-1.9,1.5
					c-0.5,0.6-1.1,1.4-1.4,2.1c-0.6,1.3-0.7,2.2-0.8,2.7c-0.1,0.5-0.1,0.7-0.1,0.5c0-0.3-0.2-1.7,0.2-3.5c0,0.1,0-0.4,0.3-1.2
					c0.1-0.4,0.3-0.8,0.5-1.3c0.3-0.5,0.5-1,0.9-1.5c0.3-0.5,0.8-0.9,1.2-1.3c0.4-0.4,0.8-0.7,1.2-1c0.4-0.3,0.7-0.5,1-0.6
					c0.2-0.1,0.4-0.2,0.4-0.2c0.4-0.2,0.9-0.3,1.3-0.5c0.5-0.1,0.9-0.2,1.4-0.3l1-0.1l1,0c0.6,0,1.3,0,1.9,0.2
					c0.6,0.1,1.3,0.3,1.9,0.5c0.6,0.2,1.2,0.5,1.8,0.8c0.6,0.3,1.1,0.7,1.6,1.1c0.3,0.2,0.5,0.4,0.7,0.7c0.2,0.2,0.5,0.5,0.7,0.7
					c0.4,0.5,0.8,1.1,1.1,1.6l0.4,0.9c0.1,0.3,0.2,0.6,0.3,0.9c0.1,0.2,0.1,0.5,0.1,0.7l0.1,0.7c0,0.5,0,0.9,0,1.4
					c-0.1,0.5-0.1,0.9-0.2,1.4C146.3,15.1,146.2,15.6,146,16z"/>
			</g>
		</g>
	</g>
	<g>
		<g>
			<g>
				<path class="st3" d="M131.1,15.7c0.1,0,0.1,0.1,0.2,0.1c0.3,0.3,0.6,0.5,0.7,0.6c0.1,0.1,0-0.1-0.9-0.1c0,0-0.2,0-0.3,0
					l-0.6-0.1l-0.6-0.1c-0.4-0.1-0.8-0.1-1.2-0.2c-0.4,0-0.8,0-1.2-0.1c-0.4,0-0.8,0-1.2,0c-0.3,0-0.5,0-0.8,0l-0.8,0.1
					c-0.3,0-0.5,0-0.8,0.1l-0.8,0.1c-0.3,0-0.5,0.1-0.8,0.1l-0.8,0.2c-0.3,0.1-0.5,0.1-0.8,0.2l-0.7,0.2c-0.2,0.1-0.4,0.1-0.6,0.2
					l-0.6,0.2l-0.6,0.2c-0.2,0.1-0.4,0.2-0.6,0.3c0,0-0.3,0.1-0.7,0.3c-0.4,0.2-1,0.5-1.7,0.8c-0.7,0.4-1.4,0.8-2.1,1.3
					c-0.4,0.2-0.7,0.5-1.1,0.8c-0.3,0.3-0.7,0.5-1,0.8c-0.5,0.5-0.9,0.9-1.2,1.3c-0.3,0.4-0.5,0.7-0.7,0.9c-0.3,0.4-0.4,0.6-0.3,0.4
					c0.2-0.2,0.7-1.6,1.5-3.2c-0.1,0.1,0.2-0.3,0.6-1c0.2-0.3,0.5-0.7,0.8-1.1c0.3-0.4,0.7-0.9,1.1-1.2c0.8-0.8,1.7-1.5,2.4-2.1
					c0.7-0.5,1.3-0.8,1.3-0.8c0.4-0.2,0.8-0.4,1.2-0.5c0.4-0.2,0.8-0.3,1.3-0.4l0.9-0.2c0.3-0.1,0.6-0.1,0.9-0.2l0.9-0.1
					c0.3,0,0.6,0,0.9-0.1l0.9,0c0.3,0,0.6,0,0.9,0.1l0.9,0.1c0.3,0,0.6,0.1,0.9,0.2c0.4,0.1,0.9,0.2,1.3,0.4
					c0.4,0.2,0.9,0.3,1.3,0.5c0.2,0.1,0.4,0.2,0.6,0.3L130,15c0.2,0.1,0.4,0.2,0.6,0.3L131.1,15.7z"/>
			</g>
		</g>
	</g>
</g>
<g id="Capa_2">
	<g>
		<g>
			<path d="M88.8,280.9c-1.7,0.5-3.7,0.5-6-0.3c-2.3-0.7-4-3.9-5.2-9.6c-0.6-3.6-1-7.3-1.3-11c-0.3-4.2-0.3-8.4-0.1-12.8
				c-0.9,0.7-1.5,1-1.7,1.1c-1.4,0.4-2.6-0.5-3.5-2.7c-0.9-2.3-1.4-4.9-1.5-8l-0.1-2.2c2-0.3,3.9-0.7,5.8-1.2l1.9-0.5
				c1.2-11.1,2.8-21.5,4.8-31l0.4-2c0.6-2.7,2-4.7,4.2-6.2c1.6-1,3.3-1.7,5-2c0.6-0.1,1.7-0.2,3.2-0.3c1.5-0.1,2.9,0.4,4.3,1.4
				c-0.3,1.3-0.7,2.6-1.1,3.9c-1.4,5.3-2.8,10.4-4,15.5c-1.2,5-2.3,10.5-3.1,16.4c6.1-2.6,10.8-6.3,14.2-11.2
				c3.3-4.8,5.3-9.7,5.9-14.8c0.2-1.6,0.2-3.1,0.1-4.6c-0.6-9.1-5.1-13.3-13.6-12.6l-1,0.2c-3.6,0.7-7.6,2.5-11.8,5.5
				c-4.3,3-8.1,7.7-11.5,14c-3.4,6.4-5.5,14.5-6.2,24.2c-2.2-2.2-3.8-5.1-4.8-8.8c-0.9-3.2-1.4-6.4-1.5-9.6
				c-0.1-3.9,0.5-8.6,1.9-13.9c1.4-5.3,4.2-10.7,8.4-16.1c4.2-5.3,8.9-9.4,14.1-12.3c3.4-1.8,6.7-3,10-3.5c1.7-0.3,4.3-0.3,7.6-0.1
				c3.3,0.2,6.7,2.3,10.3,6.2c3.5,3.9,5.7,9.9,6.6,18l0,0.2c0.5,6.8-0.7,13.6-3.6,20.2c-2.9,6.7-7,12.9-12.2,18.6
				c5,0.8,8.2,3,9.6,6.8c0.5,1.4,0.8,2.8,1,4.4c0.2,2.7-0.2,6.2-1.4,10.4c-1.2,4.2-3.5,8.9-7,14.2c-3.5,5.3-7.7,9.9-12.5,13.7
				C91.7,279.6,90.3,280.4,88.8,280.9z M92.8,262.5c0.8-0.2,1.8-0.9,2.9-1.8c4.9-4.8,7.9-9.1,8.9-12.9c0.6-2,0.8-3.7,0.6-5.3
				c-0.1-1.5-0.7-3.2-1.8-4.9c-1.1-1.7-3-2.7-5.7-2.9c-0.9-0.1-1.8-0.1-2.6,0.2c-1.8,0.5-3.6,1.6-5.5,3.4c-0.7,3.9-1.1,8.1-1.2,12.6
				c0,1.3,0,2.6,0.1,3.8c0.2,2.6,0.7,4.7,1.4,6.3C90.5,262.4,91.5,262.9,92.8,262.5z"/>
			<path d="M138.9,247.6c-1.7,0.4-3.8,0.5-6.2,0.1c-2.4-0.3-4.7-2.2-6.7-5.6c-1.9-3.6-3.1-8.2-3.6-14c-0.3-3.3-0.3-7.1,0-11.3
				c0.3-4.2,1-8.5,2.3-12.8c1.2-4.3,2.9-7.9,5-10.8c2.1-2.9,4.6-4.6,7.6-5c2.6-0.4,4.8,0.3,6.7,2c1.9,1.7,3.3,3.9,4.3,6.7
				c0.6,1.7,1,3.4,1.1,5.2c0.1,1.2,0.2,2.5,0.1,3.8c-0.4,5.7-1.6,9.8-3.7,12.2c-1.9,2.2-3.7,3.5-5.7,3.8c-0.2,0-0.9,0.1-2.1,0.3
				c-1.2,0.1-2.1-0.3-2.8-1.3c-0.2,3.2-0.2,6,0,8.7c0.1,1.3,0.5,3.2,1,5.7c0.5,2.4,2,3.9,4.4,4.4c0.4,0.1,0.8,0.1,1.3,0
				c1.1-0.3,2.5-1.1,4.1-2.5c1.6-1.4,3.1-3.9,4.4-7.4c1.6-4.9,2.8-9.1,3.6-12.6c0.3-1,0.5-1.7,0.6-2.2c0.1-0.5,0.3-0.8,0.4-0.8
				c0.2,0,0.3,0.3,0.4,0.9c0.2,4.5-0.3,9-1.6,13.8c-0.9,3.6-2.1,6.7-3.5,9.5c-1.8,3.4-4.3,5.9-7.3,7.7
				C141.6,246.7,140.3,247.3,138.9,247.6z M137.2,216.2c2.1-0.4,3.8-1.4,5-2.9c1.7-2.1,2.4-4.8,2.1-8.1c-0.1-0.9-0.3-1.9-0.7-3
				c-0.4-1.1-1-1.6-1.8-1.6c-1.1,0.4-2.1,1.7-3,4c-1,2.2-1.8,5-2.4,8.4c-0.2,1.1-0.4,2.2-0.5,3.4L137.2,216.2z"/>
			<path d="M170.1,240.5c-1.7,0.4-3.7,0.4-6.1,0c-2.4-0.4-4.7-2.2-6.7-5.5c-2-3.4-3.3-7.9-3.9-13.3c-0.4-3.2-0.4-6.7-0.2-10.7
				c0.2-4,0.9-8,2-12.1c1.1-4,2.7-7.4,4.7-10.1c2-2.7,4.5-4.2,7.4-4.5c2.6-0.3,4.8,0.4,6.7,2c1.9,1.6,3.4,3.8,4.4,6.5
				c0.6,1.6,1,3.2,1.2,4.9c0.1,1.2,0.2,2.4,0.2,3.6c-0.3,5.4-1.4,9.2-3.4,11.4c-1.8,2-3.6,3.2-5.5,3.5c-0.2,0-0.9,0.1-2,0.2
				c-1.2,0.1-2.1-0.3-2.8-1.3c-0.2,3-0.1,5.7,0.2,8.2c0.2,1.3,0.5,3.1,1.1,5.4c0.6,2.3,2.1,3.7,4.4,4.3c0.4,0.1,0.8,0.1,1.3,0
				c1.1-0.2,2.4-1,4-2.3c1.6-1.3,3-3.6,4.2-6.9c1.5-4.6,2.6-8.5,3.3-11.8c0.2-0.9,0.4-1.6,0.6-2.1c0.1-0.5,0.2-0.7,0.4-0.7
				c0.2,0,0.3,0.2,0.4,0.8c0.3,4.2-0.1,8.5-1.2,13c-0.8,3.3-1.9,6.3-3.3,8.9c-1.8,3.1-4.1,5.5-7.1,7.1
				C172.8,239.7,171.4,240.2,170.1,240.5z M167.7,210.7c2.1-0.3,3.8-1.2,4.9-2.6c1.6-1.9,2.3-4.4,1.9-7.6c-0.1-0.9-0.4-1.8-0.8-2.9
				c-0.4-1.1-1-1.6-1.8-1.5c-1,0.4-2,1.6-2.9,3.7c-0.9,2.1-1.6,4.7-2.2,7.9c-0.2,1-0.4,2.1-0.5,3.2L167.7,210.7z"/>
			<path d="M194.3,237c-0.7,0.1-1.6,0-2.8-0.4c-1.2-0.4-2.1-1.1-2.9-2.1c-2.2-3.3-3.7-7.7-4.4-13c0-0.2-0.2-1.8-0.6-4.8
				c-0.4-3-0.4-7.4-0.2-13.2c0.3-5.8,0.7-10.6,1.3-14.3c0.5-2.5,1.6-4.1,3.5-4.8c0.8-0.3,1.6-0.5,2.5-0.5c1.1-0.1,2.5,0,4.2,0.4
				c1.7,0.4,3.3,1.2,4.8,2.3c-2.6,6-4.3,14.6-4.9,25.7l0.9-4.4c0.6-2.9,1.5-6.3,2.7-10.2c1.2-3.8,2.7-7.3,4.4-10.5
				c1.7-3.1,3.8-5.1,6.1-5.9l0.6,0c1.8-0.1,3.3,0.9,4.4,3c0.9,1.8,1.5,3.8,1.9,6.3c0.1,0.8,0.3,2.4,0.5,4.6c0.2,2.2,0,4.9-0.7,8.1
				c-0.7,3.2-1.8,5.4-3.3,6.7c-0.5,0.4-1,0.6-1.6,0.7c-1.4,0.2-2.9-0.5-4.7-2.1c1.8-2.5,2.5-5.1,2-8c-0.3-2.1-1-3.2-2.1-3.2
				c-0.9,0.1-2.1,1.9-3.7,5.6c-1.5,3.6-2.9,8.4-4.1,14.2c-1.2,5.8-1.7,12-1.5,18.5C196,236.4,195.2,236.8,194.3,237z"/>
		</g>
	</g>
</g>
<g id="Capa_3">
	<g>
		<g>
			<path d="M125.9,376.4c-0.1,0-0.9,0.1-2.4,0.1c-1.5,0.1-3.9-0.8-7.1-2.6c-3.2-1.9-6.4-4-9.4-6.4l-3-2.3c-2.9,5.7-7.1,8.9-12.5,9.5
				c-4.8,0.5-8.3-0.6-10.5-3.3c-1.6-2-2.6-4.3-2.9-6.8c-0.2-1.2-0.1-3.2,0.1-5.9c0.2-2.7,1.8-5.3,4.7-7.7c1.5-1.2,3.2-1.8,5.3-1.8
				c2,0,4.2,0.5,6.8,1.4c0.5-2.4,1.1-6.8,1.6-13.3c0.5-6.5,0.9-13.5,1-21.2c0.2-9.2-0.2-16.6-1-22.1c-0.6-4.2-1.6-6.6-3-7.3
				c-1.5-0.1-3.2,2.8-5.1,8.8c-2,6.1-3.6,13.2-4.8,21.4c-1,6.8-1.2,12.7-0.5,17.6c0.1,1,0.3,1.9,0.5,2.8c-6.7-2.8-10.9-7-12.7-12.8
				c-0.6-1.9-1-3.8-1.2-5.8c-0.5-4.1,0-8.8,1.2-14.2c1.3-5.3,4-10,6.6-15.1c2.7-5.1,8.4-2.9,11.7-4.3c3.5-1.3,4.5-6.1,7.1-5.4
				c2,0.6,4.3,2.3,6.8,5c3,3.2,5.2,9.3,6.8,18.2c1,5.4,1.4,11,1.3,16.8c-0.1,14.9-1.3,26.9-3.6,36.3l5,2.7c8.6,4.6,15,6.7,19.2,6.5
				c0.7,0,1.5-0.1,2.2-0.2c0.4,1.8-0.1,3.8-1.5,6.3C130.8,374.4,128.6,376.2,125.9,376.4z M87.8,368.5c0.4,0,0.9-0.4,1.6-1
				c0.7-0.6,1.4-1.9,2.1-3.8c0.7-1.9,1.1-3.6,1.4-5.1c-1.3-0.7-2.4-1-3.4-0.9c-0.7,0-1.5,0.4-2.5,1.1c-1,0.7-1.6,2-2,3.9
				c-0.2,0.9-0.2,1.8-0.1,2.5c0.1,0.8,0.4,1.6,0.9,2.2C86.5,368.1,87.2,368.5,87.8,368.5z"/>
			<path d="M131.7,359.7l-0.2,0c-3.4-0.4-5.9-2.1-7.8-5.3c-1.4-2.5-2.4-5.4-3.1-8.7c-0.2-1.2-0.6-3.3-0.9-6.4
				c-0.4-3.1-0.5-7.1-0.4-12.2c0.1-5,0.4-9.5,0.9-13.4c0.4-2.1,1.5-3.2,3.2-3.4c0.8-0.1,1.7,0,2.7,0.2c1,0.2,2.3,0.7,4,1.5
				c1.7,0.8,3.3,1.9,4.9,3.4c-0.6,1.7-1.2,4.4-1.8,8.1c-0.6,3.8-1,7.8-1.2,12.1c-0.3,4.4-0.3,8.1-0.1,11.4c0.1,1.3,0.2,2.3,0.4,3.1
				c0.3,1.5,0.9,2.2,1.5,2.3c1.1,0,2.2-0.9,3.2-2.9c1.3-2.7,2.7-7.1,3.9-13c0.2-1.1,0.3-1.6,0.5-1.6c0.1,0,0.3,0.3,0.5,0.8
				c0.7,3.6,0.6,7.3-0.2,10.9c-0.8,3.7-2.2,6.8-4,9.2C136,358.4,133.9,359.7,131.7,359.7z M131.3,309.2c-0.6-0.1-1.3-0.4-2.1-0.7
				c-4.1-1.5-6.4-3.9-7.1-7.1c-0.4-2.1-0.3-4.2,0.5-6.1c0.6-1.5,2.1-2,4.4-1.2l0.7,0.2c2.8,1.3,4.8,2.6,6,3.9c1,1,1.6,2.2,1.9,3.6
				l0.2,1c0.6,3.4,0.2,5.5-1.4,6.3C133.6,309.5,132.6,309.5,131.3,309.2z"/>
			<path d="M154.5,374.7c-3.8,0.3-6.8-1.8-9-6.5c-1-2.2-1.9-4.7-2.6-7.6c-0.7-2.6-1.4-6.3-2.1-11.1c-0.7-4.8-1.2-10.6-1.4-17.4
				c-0.3-6.8-0.3-12.7-0.2-18c0.1-5.2,0.2-8.8,0.4-10.9c0.3-1.8,1.3-2.7,2.9-2.6c0.8,0,1.6,0.2,2.5,0.5c1,0.3,2.4,1,4,1.9
				c1.6,0.9,3.2,2.1,4.8,3.6c-0.5,1.4-0.9,5.4-1.2,12.3c-0.4,6.9-0.5,14.6-0.5,22.8c0.1,1.6,0.3,2.9,0.7,4c0.7,2.5,1.8,3.7,3.4,3.8
				c1.4,0.1,2.5-1.1,3.4-3.6c0.7-2.6,1.4-5.3,2-8.1c0.1-0.3,0.2-0.4,0.2-0.4c0.2,0,0.3,0.3,0.5,0.7c0.7,3,0.8,6,0.3,9
				c-0.7,3.5-2.2,5.7-4.3,6.4c1.9,2.1,3.3,4.5,4.1,7.2c1.3,4,1,7.4-0.9,10.3C160.2,373.3,157.8,374.5,154.5,374.7z M157.1,369.9
				c0.2,0,0.5-0.2,1-0.5c0.5-0.3,0.9-1.4,1.1-3.4c0.2-1.4,0-2.9-0.4-4.4c-0.2-0.6-0.6-1.7-1.3-3.1c-0.7-1.5-2.4-2.9-5.1-4.4
				c0.4,5.2,1,9,1.7,11.5c0.2,0.6,0.4,1.1,0.6,1.5C155.6,369,156.4,369.9,157.1,369.9z"/>
			<path d="M180.4,359.1c-1.7,0-3.8-0.4-6.3-1.1c-2.5-0.7-5-2.4-7.5-5.1c-2.4-2.9-4.2-6.3-5.5-10.4c-0.7-2.4-1.2-5-1.5-7.8
				c-0.3-2.8-0.1-5.5,0.5-8c0.6-2.5,1.7-4.4,3.4-5.6c1.6-1.2,3.9-1.4,6.7-0.6c2.5,0.7,4.8,1.9,6.9,3.6c2.1,1.7,3.9,3.6,5.2,5.6
				c0.8,1.2,1.5,2.4,1.9,3.5c0.3,0.8,0.5,1.6,0.7,2.3c0.5,3.4-0.1,5.5-1.8,6.5c-1.5,0.9-3.2,1.2-5.1,0.9c-0.2,0-0.9-0.1-2-0.4
				c-1.2-0.2-2.2-0.7-3-1.6c0.2,2,0.6,3.9,1.3,5.7c0.3,0.9,0.9,2.2,1.8,3.9c0.9,1.7,2.6,3,5,3.8c0.4,0.1,0.9,0.2,1.3,0.2
				c1.1,0.1,2.3-0.2,3.8-0.7c1.4-0.5,2.5-1.7,3.4-3.6c0.9-2.6,1.4-4.8,1.7-6.7c0.1-0.5,0.2-0.9,0.3-1.2c0.1-0.3,0.1-0.4,0.3-0.4
				c0.2,0,0.4,0.2,0.5,0.6c0.9,2.7,1.1,5.3,0.6,7.8c-0.4,1.9-1.1,3.6-2.1,5c-1.4,1.7-3.5,2.8-6.3,3.4
				C183.1,359,181.7,359.1,180.4,359.1z M174.2,338.5c2.1,0.3,3.6,0.2,4.6-0.5c1.4-0.8,1.7-2.3,0.9-4.5c-0.2-0.6-0.6-1.3-1.2-2.1
				c-0.5-0.8-1.2-1.3-2-1.5c-1-0.1-1.8,0.4-2.4,1.6c-0.6,1.1-1,2.7-1.1,4.7c-0.1,0.6-0.1,1.3-0.1,2L174.2,338.5z"/>
		</g>
	</g>
	<g>
		<path d="M214.2,232.4c-7.1,4.2-14.5,8-21.9,11.9c-0.4,0.5-0.9,1.1-1.5,1.6c-6.5,10.5-11.6,20.2-15.4,29.2l-15.1-0.1l19.6-21.9
			l-8.6-9.7l-40.2,43.8L170,288l-3.5,8.2c-0.7,1.7-1.2,3.2-1.4,4.7c-0.4,3,0.4,5.4,2.3,7.4c2.8,2.9,16.7,16.1,22.8,16.5l-2.2-4.3
			c-2.7-7-2.6-14.3,0.3-21.3c1.4-3.3,2.8-6.6,5.1-10.9l1.9,0c5-1,8.4-2.7,10.2-5.2c1.8-2.5,2.9-5,3.5-7.7l0-0.2l-8.3-0.1
			C205.5,267.1,208.7,245.8,214.2,232.4z"/>
	</g>
</g>
</svg>
